<?xml version="1.0" encoding="UTF-8" standalone="no"?>
<svg
   xmlns:dc="http://purl.org/dc/elements/1.1/"
   xmlns:cc="http://creativecommons.org/ns#"
   xmlns:rdf="http://www.w3.org/1999/02/22-rdf-syntax-ns#"
   xmlns:svg="http://www.w3.org/2000/svg"
   xmlns="http://www.w3.org/2000/svg"
   viewBox="0 0 666.66669 666.66669"
   height="666.66669"
   width="666.66669"
   xml:space="preserve"
   id="svg2"
   version="1.1"><metadata
     id="metadata8"><rdf:RDF><cc:Work
         rdf:about=""><dc:format>image/svg+xml</dc:format><dc:type
           rdf:resource="http://purl.org/dc/dcmitype/StillImage" /></cc:Work></rdf:RDF></metadata><defs
     id="defs6"><clipPath
       id="clipPath144"
       clipPathUnits="userSpaceOnUse"><path
         id="path142"
         d="m 2951.94,4094.82 c 0,-210.6 -170.73,-381.33 -381.33,-381.33 -210.61,0 -381.34,170.73 -381.34,381.33 0,210.61 170.73,381.34 381.34,381.34 210.6,0 381.33,-170.73 381.33,-381.34" /></clipPath><clipPath
       id="clipPath228"
       clipPathUnits="userSpaceOnUse"><path
         id="path226"
         d="m 1502.48,3147.08 c 0,-183.47 -148.74,-332.21 -332.22,-332.21 -183.479,0 -332.213,148.74 -332.213,332.21 0,183.48 148.734,332.22 332.213,332.22 183.48,0 332.22,-148.74 332.22,-332.22" /></clipPath><clipPath
       id="clipPath254"
       clipPathUnits="userSpaceOnUse"><path
         id="path252"
         d="m 1277.14,2832.44 v 77.41 c 7.39,-31.36 11.94,-54.92 14.76,-72.01 -4.86,-1.91 -9.78,-3.72 -14.76,-5.4 m 67.33,31.71 c -2.82,20.59 -5.26,43.77 -5.94,65.75 -0.22,7.23 -0.82,14.1 -1.73,20.59 1.52,0.49 2.75,1.38 2.75,2.91 l 0.41,3.48 c 3.18,53.78 -46.03,97.55 -102.8,97.55 0,0 -0.08,-0.08 -0.23,-0.23 -6.88,1.92 -17.07,4.9 -19.88,13.26 0.01,0 0.01,0.01 0.02,0.01 -0.47,1.39 -0.75,2.93 -0.76,4.64 0,0.03 0,0.06 0,0.08 0,2.55 0,8.09 0,14.88 0.98,0.77 1.93,1.56 2.87,2.37 -0.9,-7.93 13.48,-15.49 29.76,-15.49 21.67,0 46.71,13.39 43.62,57.11 -1.52,21.51 -12.34,71.2 -18.15,96.76 -0.18,1.93 -0.41,3.88 -0.7,5.82 -9.47,64.74 -56.38,93.82 -103.45,93.91 v 151.75 c 183.48,0 332.22,-148.74 332.22,-332.22 0,-119.58 -63.2,-224.42 -158.01,-282.93" /></clipPath><clipPath
       id="clipPath310"
       clipPathUnits="userSpaceOnUse"><path
         id="path308"
         d="m 3356.39,2710.27 c 0,-164.95 -133.72,-298.67 -298.67,-298.67 -164.95,0 -298.67,133.72 -298.67,298.67 0,164.95 133.72,298.67 298.67,298.67 164.95,0 298.67,-133.72 298.67,-298.67" /></clipPath></defs><g
     transform="matrix(1.3333333,0,0,-1.3333333,0,666.66667)"
     id="g10"><g
       transform="scale(0.1)"
       id="g12"><path
         id="path14"
         style="fill:#e3f6f7;fill-opacity:1;fill-rule:nonzero;stroke:none"
         d="M 0,0 H 5000 V 5000 H 0 Z" /><path
         id="path16"
         style="fill:#253e54;fill-opacity:1;fill-rule:nonzero;stroke:none"
         d="m 2897.74,3096.38 h -857.62 c -59.72,0 -108.14,-48.41 -108.14,-108.13 V 1183.5 c 0,-59.73 48.42,-108.14 108.14,-108.14 h 857.62 c 59.73,0 108.14,48.41 108.14,108.14 v 1804.75 c 0,59.72 -48.41,108.13 -108.14,108.13" /><path
         id="path18"
         style="fill:#f3a35a;fill-opacity:1;fill-rule:nonzero;stroke:none"
         d="m 1839.59,2530.2 c 0,0 21.81,-17.39 44.85,-43.48 36.3,-41.1 32.64,-42.09 47.54,-76.44 v 123.05 l -92.39,-3.13" /><path
         id="path20"
         style="fill:#e3f6f7;fill-opacity:1;fill-rule:nonzero;stroke:none"
         d="m 1997.65,1283.33 h 938.691 V 2890 H 1997.65 Z" /><path
         id="path22"
         style="fill:#305676;fill-opacity:1;fill-rule:nonzero;stroke:none"
         d="m 2674.78,2960.83 h -300.27 c -10.97,0 -19.87,8.9 -19.87,19.87 0,10.98 8.9,19.87 19.87,19.87 h 300.27 c 10.97,0 19.86,-8.89 19.86,-19.87 0,-10.97 -8.89,-19.87 -19.86,-19.87" /><path
         id="path24"
         style="fill:#376575;fill-opacity:1;fill-rule:nonzero;stroke:none"
         d="m 2304.35,2980.7 c 0,-17.95 -14.56,-32.5 -32.5,-32.5 -17.95,0 -32.5,14.55 -32.5,32.5 0,17.95 14.55,32.5 32.5,32.5 17.94,0 32.5,-14.55 32.5,-32.5" /><path
         id="path26"
         style="fill:#305676;fill-opacity:1;fill-rule:nonzero;stroke:none"
         d="m 2533.66,1181.44 c 0,-35.75 -28.98,-64.73 -64.73,-64.73 -35.75,0 -64.73,28.98 -64.73,64.73 0,35.75 28.98,64.72 64.73,64.72 35.75,0 64.73,-28.97 64.73,-64.72" /><path
         id="path28"
         style="fill:#253e54;fill-opacity:1;fill-rule:nonzero;stroke:none"
         d="m 2523.57,1181.44 c 0,-30.18 -24.46,-54.64 -54.64,-54.64 -30.18,0 -54.64,24.46 -54.64,54.64 0,30.18 24.46,54.64 54.64,54.64 30.18,0 54.64,-24.46 54.64,-54.64" /><path
         id="path30"
         style="fill:#ffffff;fill-opacity:1;fill-rule:nonzero;stroke:none"
         d="m 2540.77,2653.42 h -443.61 c -11.92,0 -21.58,-9.66 -21.58,-21.58 v -10.76 l -49.12,-28.35 49.12,-28.36 v -12.42 c 0,-11.92 9.66,-21.58 21.58,-21.58 h 443.61 c 11.92,0 21.58,9.66 21.58,21.58 v 79.89 c 0,11.92 -9.66,21.58 -21.58,21.58" /><path
         id="path32"
         style="fill:#b2e5e3;fill-opacity:1;fill-rule:nonzero;stroke:none"
         d="m 2385.14,2356.22 h 443.61 c 11.91,0 21.58,9.66 21.58,21.58 v 10.75 l 49.12,28.36 -49.12,28.36 v 12.42 c 0,11.92 -9.67,21.58 -21.58,21.58 h -443.61 c -11.92,0 -21.58,-9.66 -21.58,-21.58 v -79.89 c 0,-11.92 9.66,-21.58 21.58,-21.58" /><path
         id="path34"
         style="fill:#b2e5e3;fill-opacity:1;fill-rule:nonzero;stroke:none"
         d="m 2385.14,2199.11 h 443.61 c 11.91,0 21.58,9.66 21.58,21.57 v 10.75 l 49.12,28.36 -49.12,28.36 v 12.43 c 0,11.91 -9.67,21.58 -21.58,21.58 h -443.61 c -11.92,0 -21.58,-9.67 -21.58,-21.58 v -79.9 c 0,-11.91 9.66,-21.57 21.58,-21.57" /><path
         id="path36"
         style="fill:#ffffff;fill-opacity:1;fill-rule:nonzero;stroke:none"
         d="m 2733.2,2134.1 h -620 c -18.95,0 -34.32,-15.37 -34.32,-34.32 V 2099 l -52.42,-30.27 52.42,-30.26 v -90.04 c 0,-18.96 15.37,-34.33 34.32,-34.33 h 620 c 18.96,0 34.33,15.37 34.33,34.33 v 151.35 c 0,18.95 -15.37,34.32 -34.33,34.32" /><path
         id="path38"
         style="fill:#b2e5e3;fill-opacity:1;fill-rule:nonzero;stroke:none"
         d="m 2196.28,1703.73 h 620 c 18.96,0 34.32,-15.37 34.32,-34.33 v -0.78 l 52.43,-30.26 -52.43,-30.26 v -90.05 c 0,-18.96 -15.36,-34.32 -34.32,-34.32 h -620 c -18.95,0 -34.32,15.36 -34.32,34.32 v 151.35 c 0,18.96 15.37,34.33 34.32,34.33" /><path
         id="path40"
         style="fill:#ffffff;fill-opacity:1;fill-rule:nonzero;stroke:none"
         d="m 2543.18,1865.44 h -443.6 c -11.92,0 -21.58,-9.67 -21.58,-21.58 v -10.19 l -51.54,-29.75 51.54,-29.76 v -10.2 c 0,-11.91 9.66,-21.58 21.58,-21.58 h 443.6 c 11.92,0 21.59,9.67 21.59,21.58 v 79.9 c 0,11.91 -9.67,21.58 -21.59,21.58" /><path
         id="path42"
         style="fill:#b2e5e3;fill-opacity:1;fill-rule:nonzero;stroke:none"
         d="m 1997.65,2725 h 938.691 v 165 H 1997.65 Z" /><path
         id="path44"
         style="fill:#ffffff;fill-opacity:1;fill-rule:nonzero;stroke:none"
         d="m 1997.65,1283.33 h 938.691 v 129.168 H 1997.65 Z" /><path
         id="path46"
         style="fill:#e8f7f9;fill-opacity:1;fill-rule:nonzero;stroke:none"
         d="m 2073.12,1412.5 h -27.96 c -1.77,13.04 -2.8,22.6 -2.58,27.5 1.66,38.33 34.99,146.67 149.99,282.9 5.62,6.65 10.78,13.15 15.52,19.48 h 57.76 l -22.58,-38.65 h -46.99 c -18.95,0 -34.32,-15.37 -34.32,-34.33 v -104.84 l -88.84,-152.06" /><path
         id="path48"
         style="fill:#c2eae8;fill-opacity:1;fill-rule:nonzero;stroke:none"
         d="m 2161.96,1564.56 v 104.84 c 0,18.96 15.37,34.33 34.32,34.33 h 46.99 l -81.31,-139.17" /><path
         id="path50"
         style="fill:#e8f7f9;fill-opacity:1;fill-rule:nonzero;stroke:none"
         d="m 2337.75,1865.44 h -81.26 c -0.55,21.75 -6.91,38.01 -12.96,48.66 h 122.65 l -28.43,-48.66 m -231.97,8.55 23.24,40.11 h 67.76 c -23.56,-10.13 -56.4,-24.44 -91,-40.11 m 388.93,260.11 h -238.18 l 128.74,222.12 h 239.21 l -19.9,-34.06 h -219.44 c -11.92,0 -21.58,-9.67 -21.58,-21.58 v -79.9 c 0,-11.91 9.66,-21.57 21.58,-21.57 h 147.55 l -37.98,-65.01 m 201.66,345.17 h -239.78 l 29.61,51.1 h 54.57 c 11.92,0 21.58,9.66 21.58,21.58 v 79.89 c 0,6.65 -3.01,12.59 -7.74,16.55 l 44.4,76.61 h 91.46 c -0.11,-3.55 -0.16,-7.11 -0.16,-10.68 0,-62.07 15.64,-120.49 43.17,-171.53 l -37.11,-63.52" /><path
         id="path52"
         style="fill:#ffffff;fill-opacity:1;fill-rule:nonzero;stroke:none"
         d="m 2540.77,2530.37 h -54.57 l 68.41,118.02 c 4.73,-3.96 7.74,-9.9 7.74,-16.55 v -79.89 c 0,-11.92 -9.66,-21.58 -21.58,-21.58" /><path
         id="path54"
         style="fill:#c2eae8;fill-opacity:1;fill-rule:nonzero;stroke:none"
         d="m 2624.48,2356.22 h -239.21 l 71.32,123.05 h 239.78 l -71.89,-123.05" /><path
         id="path56"
         style="fill:#c2eae8;fill-opacity:1;fill-rule:nonzero;stroke:none"
         d="m 2532.69,2199.11 h -147.55 c -11.92,0 -21.58,9.66 -21.58,21.57 v 79.9 c 0,11.91 9.66,21.58 21.58,21.58 h 219.44 l -71.89,-123.05" /><path
         id="path58"
         style="fill:#ffffff;fill-opacity:1;fill-rule:nonzero;stroke:none"
         d="m 2366.18,1914.1 h -122.65 c -5.71,10.07 -11.16,15.15 -11.16,15.15 0,0 -13.83,-5.79 -35.59,-15.15 h -67.76 l 127.51,220 h 238.18 l -128.53,-220" /><path
         id="path60"
         style="fill:#ffffff;fill-opacity:1;fill-rule:nonzero;stroke:none"
         d="m 2265.85,1742.38 h -57.76 c 38.58,51.58 49.15,92.69 48.4,123.06 h 81.26 l -71.9,-123.06" /><path
         id="path62"
         style="fill:#c2eae8;fill-opacity:1;fill-rule:nonzero;stroke:none"
         d="m 2690.47,2725 h -91.46 l 95.63,165 h 41.12 c -27.33,-49.1 -43.56,-105.23 -45.29,-165" /><path
         id="path64"
         style="fill:#ffffff;fill-opacity:1;fill-rule:nonzero;stroke:none"
         d="m 2050.74,1374.19 c -2.18,14.69 -4.13,27.66 -5.58,38.31 h 27.96 l -22.38,-38.31" /><path
         id="path66"
         style="fill:#e8f7f9;fill-opacity:1;fill-rule:nonzero;stroke:none"
         d="m 1997.65,2056.84 v 432.06 l 53.42,89.62 24.51,-14.15 v -12.42 c 0,-11.92 9.66,-21.58 21.58,-21.58 h 177.15 l -276.66,-473.53 m 98.04,596.53 42.7,71.63 h 249.63 l -41.82,-71.58 h -249.04 c -0.49,0 -0.98,-0.02 -1.47,-0.05" /><path
         id="path68"
         style="fill:#ffffff;fill-opacity:1;fill-rule:nonzero;stroke:none"
         d="m 2274.31,2530.37 h -177.15 c -11.92,0 -21.58,9.66 -21.58,21.58 v 12.42 l -24.51,14.15 44.62,74.85 c 0.49,0.03 0.98,0.05 1.47,0.05 h 249.04 l -71.89,-123.05" /><path
         id="path70"
         style="fill:#c2eae8;fill-opacity:1;fill-rule:nonzero;stroke:none"
         d="m 2388.02,2725 h -249.63 l 14.65,24.57 h 79.6 c 73.7,0 142.7,20.05 201.87,55 L 2388.02,2725" /><path
         id="path72"
         style="fill:#1d2e3c;fill-opacity:1;fill-rule:nonzero;stroke:none"
         d="m 2062.24,1075.36 h -22.12 c -59.72,0 -108.14,48.41 -108.14,108.14 v 586.18 c 22.31,17.46 44.72,33.51 65.67,47.24 v -533.59 h 65.41 c 8.36,-72.34 13.16,-153.57 -0.82,-207.97" /><path
         id="path74"
         style="fill:#a3c1bb;fill-opacity:1;fill-rule:nonzero;stroke:none"
         d="m 1997.65,1283.33 v 0 533.59 c 23.69,15.52 45.53,28.09 63.26,36.41 14.88,6.99 30.03,13.95 44.87,20.66 l -4.96,-8.55 h -1.24 c -11.92,0 -21.58,-9.67 -21.58,-21.58 v -10.19 l -51.54,-29.75 29,-16.75 -57.81,-99.73 V 1412.5 1283.33" /><path
         id="path76"
         style="fill:#bebdbb;fill-opacity:1;fill-rule:nonzero;stroke:none"
         d="m 2055.46,1787.17 -29,16.75 51.54,29.75 v 10.19 c 0,11.91 9.66,21.58 21.58,21.58 h 1.24 l -45.36,-78.27" /><path
         id="path78"
         style="fill:#bebdbb;fill-opacity:1;fill-rule:nonzero;stroke:none"
         d="m 2063.06,1283.33 h -65.41 l 53.09,90.86 c 3.87,-26.07 8.47,-57.52 12.32,-90.86" /><path
         id="path80"
         style="fill:#a8c1ba;fill-opacity:1;fill-rule:nonzero;stroke:none"
         d="m 2045.16,1412.5 h -47.51 v 274.94 l 57.81,99.73 22.54,-13.01 v -10.2 c 0,-11.91 9.66,-21.58 21.58,-21.58 h 108.51 c -4.74,-6.33 -9.9,-12.83 -15.52,-19.48 -115,-136.23 -148.33,-244.57 -149.99,-282.9 -0.22,-4.9 0.81,-14.46 2.58,-27.5" /><path
         id="path82"
         style="fill:#a8c1ba;fill-opacity:1;fill-rule:nonzero;stroke:none"
         d="m 2256.49,1865.44 h -155.67 l 4.96,8.55 c 34.6,15.67 67.44,29.98 91,40.11 h 46.75 c 6.05,-10.65 12.41,-26.91 12.96,-48.66" /><path
         id="path84"
         style="fill:#bebdbb;fill-opacity:1;fill-rule:nonzero;stroke:none"
         d="m 2243.53,1914.1 h -46.75 c 21.76,9.36 35.59,15.15 35.59,15.15 0,0 5.45,-5.08 11.16,-15.15" /><path
         id="path86"
         style="fill:#bebdbb;fill-opacity:1;fill-rule:nonzero;stroke:none"
         d="m 2208.09,1742.38 h -108.51 c -11.92,0 -21.58,9.67 -21.58,21.58 v 10.2 l -22.54,13.01 45.36,78.27 h 155.67 c 0.75,-30.37 -9.82,-71.48 -48.4,-123.06" /><path
         id="path88"
         style="fill:#bebdbb;fill-opacity:1;fill-rule:nonzero;stroke:none"
         d="m 1997.65,1283.33 v 0 129.17 h 47.51 c 1.45,-10.65 3.4,-23.62 5.58,-38.31 l -53.09,-90.86" /><path
         id="path90"
         style="fill:#1d2e3c;fill-opacity:1;fill-rule:nonzero;stroke:none"
         d="m 2897.74,1075.36 h -111.83 c 0,0 44.85,52.97 97.08,92.14 35.54,26.65 47.4,69.2 20.68,115.83 h 32.67 v 108.93 c 57.47,-40.99 69.54,-87.81 69.54,-87.81 v -120.95 0 c 0,0 -3.6,-39.42 -24.52,-68.58 -8.07,-9.83 -17.85,-18.22 -28.88,-24.7 -0.24,-0.11 -0.48,-0.22 -0.72,-0.33 -19.34,-8.57 -34.36,-12.57 -46.97,-14.3 -2.33,-0.15 -4.68,-0.23 -7.05,-0.23" /><path
         id="path92"
         style="fill:#a3c1bb;fill-opacity:1;fill-rule:nonzero;stroke:none"
         d="m 2908.05,1412.5 h -124.44 c -10.72,23.98 -13.27,48.97 -12.1,71.23 h 44.77 c 4.85,0 9.46,1 13.63,2.81 20.36,-25.1 46.4,-50 78.14,-74.04" /><path
         id="path94"
         style="fill:#7cb8b0;fill-opacity:1;fill-rule:nonzero;stroke:none"
         d="m 2816.28,1483.73 h -44.77 c 2.1,39.68 16.02,70.72 16.6,71.99 9.21,-22.92 23.12,-46.14 41.8,-69.18 -4.17,-1.81 -8.78,-2.81 -13.63,-2.81" /><path
         id="path96"
         style="fill:#bebdbb;fill-opacity:1;fill-rule:nonzero;stroke:none"
         d="m 2936.34,1283.33 h -32.67 c -13.39,23.36 -36.46,47.75 -71.1,71.67 -24.33,16.81 -39.7,36.78 -48.96,57.5 h 124.44 c 7.74,-5.86 15.81,-11.66 24.23,-17.41 1.38,-0.94 2.73,-1.89 4.06,-2.83 v -108.93" /><path
         id="path98"
         style="fill:#fbcd6d;fill-opacity:1;fill-rule:nonzero;stroke:none"
         d="m 1931.98,2052.31 v 481.02 c 0,0 -35.7,4.72 -155.02,-8.33 -98.51,-10.78 -163.31,-150.31 -234.64,-237.77 -68.71,-84.25 -282.63,-236.04 -330.46,-338.58 -112.2,-240.51 -115.14,-478.03 -141.24,-649.56 -26.1,-171.53 -61.52,-579.828 -35.42,-674.918 26.1,-95.09 -35.427,-255.891 -35.427,-255.891 L 1501.77,200.48 c 0,0 51.74,121.661 116.06,191.571 64.32,69.91 218.13,212.539 276.86,364.488 51.68,133.711 65.59,354.111 65.59,354.111 0,0 0,0 -14.14,19.34 -14.13,19.34 -13.5,41.64 -13.5,41.64 l -0.66,317.63 c 0,0 103.54,209.29 200.42,289.91 133.31,110.94 130.05,257.29 41.98,295.59 -73.44,31.92 -242.4,-118 -242.4,-118 v 95.55" /><path
         id="path100"
         style="fill:#f3a35a;fill-opacity:1;fill-rule:nonzero;stroke:none"
         d="m 1931.98,1994.51 c 0,0 -205.91,-182.54 -253.56,-222.79 -47.65,-40.26 -124.99,-98.04 -148.22,-144.49 -36.36,-72.72 -69.81,-282.48 -69.81,-282.48 0,0 58.48,245.49 152.77,331.88 72.14,66.08 318.82,281.52 318.82,281.52 v 36.36" /><path
         id="path102"
         style="fill:#f3a35a;fill-opacity:1;fill-rule:nonzero;stroke:none"
         d="m 1696.19,2038.8 c -9.79,-9.33 -54.59,-41.95 -96.87,-34.03 -37.99,7.12 -67.25,27.04 -67.25,27.04 0,0 22.5,-33.79 57.79,-58.27 28.9,-20.04 32.76,-43.72 34.96,-60.13 12.12,-90.42 -0.47,-187.37 -0.47,-187.37 l 31.34,26.48 c -0.36,-6.12 -0.58,-9.7 -0.58,-9.7 l 156.61,123.05 114.67,103.48 5.59,25.16 v 218.14 11.19 123.04 c 0,0 -152.54,-228.79 -235.79,-308.08" /><path
         id="path104"
         style="fill:#fce19d;fill-opacity:1;fill-rule:nonzero;stroke:none"
         d="m 2179.95,2001.04 c -4.66,16.77 -44.94,72.24 -73.26,69.7 -53.33,-19.11 -114.69,-64.74 -148.66,-92.13 0,0 8.44,-50.28 74.63,-49.35 66.19,0.94 151.95,55 147.29,71.78" /><path
         id="path106"
         style="fill:#f3a35a;fill-opacity:1;fill-rule:nonzero;stroke:none"
         d="m 1946.14,1129.99 c -14.13,19.34 -13.51,41.64 -13.51,41.64 l -0.65,317.63 c 0,0 -41.02,-66.75 -42.88,-121.94 -1.86,-55.17 15.76,-323.77 -2.36,-385.519 l -0.07,-0.242 c -1.01,-3.438 -1.71,-5.938 -2.17,-7.707 -21.06,-74.032 -46.02,-151 -68.11,-190.282 C 1766.05,694.082 1694.28,619.98 1625.77,562.652 1557.25,505.309 1549.36,361.93 1438.36,359.371 1160.71,352.992 1035.58,502.16 1035.58,502.16 l -0.01,-0.019 c -0.7,-4.282 -1.45,-8.52 -2.24,-12.743 l -0.33,-1.687 c -0.67,-3.512 -1.35,-6.981 -2.06,-10.41 -0.19,-0.899 -0.38,-1.801 -0.57,-2.699 -0.69,-3.262 -1.39,-6.481 -2.11,-9.653 l -0.49,-2.168 c -1.8,-7.851 -3.67,-15.449 -5.57,-22.691 l -0.31,-1.141 c -0.84,-3.179 -1.67,-6.269 -2.51,-9.301 l -0.55,-1.976 c -0.79,-2.863 -1.58,-5.641 -2.37,-8.34 l -0.42,-1.48 c -1.87,-6.391 -3.68,-12.321 -5.39,-17.7 l -0.27,-0.882 c -0.74,-2.301 -1.44,-4.481 -2.12,-6.559 l -0.5,-1.531 c -0.62,-1.891 -1.22,-3.68 -1.78,-5.371 l -0.36,-1.059 c -1.35,-3.98 -2.51,-7.301 -3.44,-9.898 l -0.37,-1.02 -0.83,-2.293 -0.31,-0.84 -0.54,-1.457 -0.146,-0.402 -0.211,-0.559 489.407,-163.59 12.59,-4.211 c 0,0 51.74,121.661 116.06,191.571 64.32,69.91 218.13,212.539 276.86,364.488 51.68,133.711 65.59,354.111 65.59,354.111 0,0 0,0 -14.14,19.34" /><path
         id="path108"
         style="fill:#ffffff;fill-opacity:1;fill-rule:nonzero;stroke:none"
         d="m 1958.03,1978.61 c 0,0 5.34,-30.91 39.62,-43.79 -0.58,6.01 -1.72,12.41 -3.68,19.14 -11.12,38.24 -15.61,40.52 -15.66,40.55 -7.46,-5.69 -14.31,-11.08 -20.28,-15.9" /><path
         id="path110"
         style="fill:#fbcd6d;fill-opacity:1;fill-rule:nonzero;stroke:none"
         d="m 3005.88,1727.44 v 183.17 c 0,0 266.61,-197.62 298.31,-180.84 36.14,19.13 -5.6,158.47 -91.36,341.19 -45.09,96.06 -206.95,366.82 -206.95,366.82 0,0 0,144.03 0,183.18 0,39.15 96.9,32.52 139.83,-13.05 75.98,-80.64 231.19,-241.45 303.9,-336.53 72.71,-95.08 533.23,-741.11 600.35,-964.84 76.81,-256.05 29.82,-562.118 41.01,-637.618 11.19,-75.512 104.41,-253.57 104.41,-253.57 l -523,-281.614 c 0,0 -45.71,88.524 -112.78,215.473 -32.74,61.969 -269.39,48.441 -453.04,446.48 -82.54,178.918 -271.27,279.669 -247.5,279.669 23.77,0 45.21,-6.52 92.7,14.53 47.49,21.07 54.12,93.61 54.12,93.61 v 120.95 c 0,0 -12.63,49.01 -73.6,90.64 -142.67,97.43 -187.32,211.88 -138.94,299.26 22.09,39.89 62.46,48.47 137.5,6.52 75.04,-41.95 75.04,-46.14 75.04,-46.14 v 72.71" /><path
         id="path112"
         style="fill:#fbcd6d;fill-opacity:1;fill-rule:nonzero;stroke:none"
         d="m 2951.68,1089.86 c -18.77,-8.32 -33.43,-12.28 -45.81,-14.09 16.61,1.23 32.14,6.2 45.81,14.09" /><path
         id="path114"
         style="fill:#fbcd6d;fill-opacity:1;fill-rule:nonzero;stroke:none"
         d="m 2932.28,1395.1 c 60.97,-41.64 73.6,-90.65 73.6,-90.65 v 350.28 c 0,0 0,4.19 -75.04,46.14 -75.04,41.95 -115.41,33.37 -137.5,-6.52 -48.38,-87.38 -3.73,-201.83 138.94,-299.25" /><path
         id="path116"
         style="fill:#fbcd6d;fill-opacity:1;fill-rule:nonzero;stroke:none"
         d="m 2980.98,1114.47 c 15.54,18.73 24.9,42.79 24.9,69.03 0,0 -3.69,-39.83 -24.9,-69.03" /><path
         id="path118"
         style="fill:#fce19d;fill-opacity:1;fill-rule:nonzero;stroke:none"
         d="m 3005.88,1654.73 c 0,0 0,4.19 -75.04,46.14 -17.24,9.64 -33.71,16.89 -49.21,22.03 -1.84,-0.29 -39.87,-6.78 -51.47,-40.2 -11.88,-34.27 -7.69,-72.72 65.02,-110.47 72.72,-37.76 132.84,-1.4 137.04,18.17 4.19,19.58 15.38,77.61 15.38,77.61 0,0 -18.7,18.7 -41.72,39.05 v -52.33" /><path
         id="path120"
         style="fill:#f3a35a;fill-opacity:1;fill-rule:nonzero;stroke:none"
         d="m 4195.38,415.352 c 0,0.007 -9.37,17.898 -22.51,44.718 l -19.46,38.668 c 0,0 -262.67,-163.957 -404.17,-147.066 -111.67,13.328 -119.89,52 -171.67,83.328 -95.36,57.711 -226.63,114.91 -297.62,202.23 -71.04,87.36 -192.03,313.211 -206.95,415.76 -19.76,135.84 -67.11,251.42 -67.12,251.45 V 1183.5 c 0,0 -0.41,-4.54 -1.78,-11.66 -0.34,-1.79 -0.74,-3.73 -1.2,-5.81 -5.15,-22.85 -18.49,-61.66 -51.14,-76.14 -11.87,-5.26 -22.12,-8.8 -31.17,-11.15 -2.27,-0.59 -4.46,-1.1 -6.59,-1.55 -4.24,-0.89 -8.22,-1.53 -11.99,-1.96 -9.41,-1.07 -17.5,-0.91 -25.12,-0.56 -6.09,0.28 -11.89,0.69 -17.83,0.69 -4.46,0 -1.44,-3.54 6.94,-10.48 4.19,-3.46 9.73,-7.78 16.34,-12.93 3.17,-2.47 6.67,-5.19 10.31,-8.04 3.95,-3.09 8.08,-6.33 12.51,-9.87 17.02,-13.56 37.32,-30.38 58.78,-50.29 35.76,-33.191 74.78,-74.969 107.31,-124.668 3.26,-4.973 6.45,-10.023 9.56,-15.141 9.34,-15.39 18.01,-31.472 25.75,-48.25 5.24,-11.351 10.53,-22.269 15.85,-32.98 0.82,-1.629 1.62,-3.301 2.44,-4.91 5.09,-10.121 10.22,-19.93 15.37,-29.481 0.95,-1.761 1.9,-3.519 2.86,-5.25 5.22,-9.539 10.46,-18.851 15.72,-27.832 0.63,-1.066 1.26,-2.109 1.89,-3.168 5.41,-9.129 10.84,-18.031 16.29,-26.59 l 0.58,-0.949 c 5.55,-8.691 11.11,-17.031 16.67,-25.16 0.76,-1.101 1.51,-2.211 2.27,-3.301 5.45,-7.879 10.91,-15.488 16.38,-22.851 0.69,-0.93 1.38,-1.84 2.08,-2.77 5.66,-7.558 11.32,-14.89 16.98,-21.91 l 0.21,-0.258 c 5.99,-7.422 11.98,-14.562 17.95,-21.422 l 0.17,-0.199 c 5.84,-6.699 11.67,-13.121 17.49,-19.308 l 1.15,-1.223 c 5.8,-6.141 11.58,-12.059 17.34,-17.719 l 0.43,-0.418 c 3.77,-3.703 7.52,-7.273 11.27,-10.773 l 2.46,-2.278 c 3.2,-2.972 6.4,-5.871 9.58,-8.703 l 1.74,-1.547 c 3.79,-3.339 7.57,-6.582 11.32,-9.742 l 1.09,-0.898 c 3.34,-2.789 6.67,-5.512 9.99,-8.153 l 2.28,-1.828 c 3.53,-2.789 7.05,-5.531 10.54,-8.172 l 0.24,-0.179 c 3.73,-2.821 7.43,-5.528 11.11,-8.18 l 1.65,-1.168 c 3.14,-2.25 6.26,-4.441 9.37,-6.57 l 1.75,-1.199 c 7.15,-4.864 14.18,-9.43 21.1,-13.723 l 1.69,-1.039 c 3.13,-1.93 6.23,-3.809 9.31,-5.641 l 0.92,-0.539 c 3.5,-2.058 6.96,-4.07 10.39,-6.012 l 0.13,-0.066 c 3.26,-1.84 6.47,-3.613 9.66,-5.344 l 1.43,-0.777 c 6.56,-3.551 12.98,-6.879 19.21,-10.012 l 0.64,-0.32 c 2.98,-1.5 5.92,-2.949 8.83,-4.367 l 0.65,-0.321 c 16.5,-8.031 31.59,-14.769 44.96,-20.91 l 2.52,-1.172 c 1.25,-0.578 2.52,-1.16 3.74,-1.73 1.96,-0.918 3.87,-1.82 5.74,-2.707 l 2.26,-1.102 c 1.36,-0.648 2.69,-1.3 3.99,-1.941 l 2.17,-1.09 c 1.74,-0.859 3.44,-1.738 5.09,-2.609 l 0.94,-0.5 c 1.63,-0.86 3.19,-1.731 4.72,-2.59 l 1.61,-0.93 c 1.24,-0.699 2.44,-1.418 3.6,-2.129 l 1.35,-0.832 c 1.52,-0.957 2.99,-1.918 4.38,-2.898 l 0.84,-0.602 c 1.13,-0.801 2.21,-1.597 3.25,-2.41 l 1.15,-0.918 c 1.02,-0.832 1.99,-1.672 2.91,-2.519 l 0.69,-0.614 c 1.1,-1.027 2.11,-2.09 3.07,-3.148 l 0.73,-0.86 2.01,-2.55 0.71,-0.969 c 0.78,-1.152 1.5,-2.289 2.13,-3.481 l 0.01,-0.011 c 25.15,-47.617 47.3,-89.821 65.16,-123.981 2.98,-5.687 5.84,-11.156 8.57,-16.386 24.59,-47.102 39.05,-75.102 39.05,-75.102 l 523,281.602" /><path
         id="path122"
         style="fill:#ffffff;fill-opacity:1;fill-rule:nonzero;stroke:none"
         d="m 3032.22,1590.4 c 4.19,19.58 15.38,77.61 15.38,77.61 0,0 -8.15,8.12 -20.2,19.43 -3.32,-7.42 -7.68,-19.41 -12.76,-38.75 -6.68,-25.44 -4.52,-56.61 -1.41,-78.78 10.91,6.62 17.68,14.38 18.99,20.49" /><path
         id="path124"
         style="fill:#f3a35a;fill-opacity:1;fill-rule:nonzero;stroke:none"
         d="m 3379.7,1426.8 c -110,96.48 -219.07,179.92 -192.97,241.44 23.35,55.04 81.28,-0.03 123.98,-29.83 60.87,-42.48 166.23,-98.81 166.23,-98.81 0,0 -64.38,87.86 -81.86,130.51 -17.48,42.64 -46.14,109.76 -51.74,162.9 -5.59,53.13 -33.43,119.79 -43.38,145.82 -25.6,66.96 135.95,107.04 135.95,107.04 0,0 -97.46,-17.94 -116.34,-13.75 -18.88,4.2 -65.72,13.75 -93.75,75.21 -13.24,29.03 -45.01,89.26 -90.48,158.65 -27.76,42.35 118.9,84.02 118.9,84.02 0,0 -157.5,-26.67 -165.7,-7.73 -33.69,77.79 -82.66,168.77 -82.66,168.77 0,-53.12 0,-113.26 0,-113.26 0,0 161.86,-270.76 206.95,-366.82 2.96,-6.29 5.85,-12.52 8.69,-18.71 0.94,-2.03 1.84,-4.04 2.77,-6.06 1.91,-4.17 3.8,-8.33 5.66,-12.44 1.03,-2.28 2.04,-4.55 3.05,-6.82 1.72,-3.84 3.42,-7.66 5.1,-11.46 1.01,-2.3 2.02,-4.59 3.02,-6.88 1.68,-3.83 3.32,-7.64 4.95,-11.42 0.89,-2.08 1.8,-4.16 2.67,-6.22 2.01,-4.7 3.97,-9.35 5.9,-13.97 0.44,-1.05 0.9,-2.13 1.34,-3.17 2.34,-5.64 4.62,-11.19 6.84,-16.68 0.67,-1.65 1.3,-3.26 1.96,-4.9 1.54,-3.84 3.07,-7.67 4.55,-11.44 0.79,-2.02 1.56,-4.02 2.34,-6.02 1.3,-3.35 2.58,-6.68 3.83,-9.97 0.77,-2.05 1.54,-4.08 2.3,-6.09 1.22,-3.28 2.42,-6.51 3.59,-9.73 0.69,-1.86 1.37,-3.74 2.04,-5.59 1.29,-3.57 2.52,-7.06 3.74,-10.54 0.49,-1.4 1,-2.84 1.48,-4.23 1.65,-4.78 3.24,-9.49 4.76,-14.1 0.33,-1.02 0.64,-2.01 0.97,-3.04 1.18,-3.59 2.31,-7.15 3.4,-10.65 0.49,-1.57 0.95,-3.11 1.42,-4.67 0.88,-2.86 1.73,-5.7 2.54,-8.49 0.48,-1.64 0.94,-3.26 1.4,-4.87 0.76,-2.66 1.48,-5.29 2.18,-7.88 0.41,-1.55 0.83,-3.1 1.23,-4.62 0.71,-2.71 1.36,-5.36 2,-7.98 0.31,-1.26 0.63,-2.54 0.93,-3.78 0.89,-3.79 1.73,-7.51 2.47,-11.11 v 0 l 0.01,-0.03 c 1.1,-5.31 1.98,-10.33 2.74,-15.17 0.81,-5.16 1.42,-10.04 1.84,-14.63 l 0.01,-0.09 c 1.24,-13.79 0.66,-24.98 -1.86,-33.25 -2.12,-6.93 -5.55,-11.88 -10.5,-14.49 -23.81,-12.61 -180.19,95.78 -256.52,150.49 l -41.79,24.76 v -177.58 -45.45 -27.26 c 0,0 287.35,-197.19 349.34,-257.3 68.52,-66.41 230.49,-276.86 230.49,-276.86 0,0 -120.14,230.91 -206.01,306.23" /><path
         id="path126"
         style="fill:#c33945;fill-opacity:1;fill-rule:nonzero;stroke:none"
         d="m 1577.99,0 41.91,109.09 c 17.09,44.492 -5.12,94.43 -49.62,111.531 L 954.223,457.289 c -44.496,17.09 -94.426,-5.117 -111.524,-49.617 L 686.086,0 h 891.904" /><path
         id="path128"
         style="fill:#9c272f;fill-opacity:1;fill-rule:nonzero;stroke:none"
         d="M 1570.28,220.621 954.223,457.289 C 911.875,473.551 1229.24,286.672 1262.58,133.738 1273.8,82.25 1264.03,0 1264.03,0 h 313.96 l 41.91,109.09 c 17.09,44.492 -5.12,94.43 -49.62,111.531" /><path
         id="path130"
         style="fill:#c33945;fill-opacity:1;fill-rule:nonzero;stroke:none"
         d="m 3570.04,0 h 947.3 l -177.88,415.051 c -19.76,46.109 -73.17,67.469 -119.28,47.711 l -633.31,-271.41 c -46.11,-19.77 -67.48,-73.18 -47.71,-119.2934 L 3570.04,0" /><path
         id="path132"
         style="fill:#9c272f;fill-opacity:1;fill-rule:nonzero;stroke:none"
         d="m 3586.87,191.352 c -46.11,-19.77 -67.48,-73.18 -47.71,-119.2934 L 3570.04,0 h 319.2 c 0,0 -30,53.75 -31.25,133.738 -1.59,102.082 57.06,198.254 57.06,198.254 l -328.18,-140.64" /><path
         id="path134"
         style="fill:#d14225;fill-opacity:1;fill-rule:nonzero;stroke:none"
         d="M 4154.26,4551.11 H 2558.51 c -252,0 -456.28,-204.29 -456.28,-456.29 0,-252 204.28,-456.28 456.28,-456.28 h 1595.75 c 252,0 456.29,204.28 456.29,456.28 0,252 -204.29,456.29 -456.29,456.29" /><path
         id="path136"
         style="fill:#f14f33;fill-opacity:1;fill-rule:nonzero;stroke:none"
         d="m 2951.94,4094.82 c 0,-210.6 -170.73,-381.33 -381.33,-381.33 -210.61,0 -381.34,170.73 -381.34,381.33 0,210.61 170.73,381.34 381.34,381.34 210.6,0 381.33,-170.73 381.33,-381.34" /><g
         id="g138"><g
           clip-path="url(#clipPath144)"
           id="g140"><path
             id="path146"
             style="fill:#6f3d27;fill-opacity:1;fill-rule:nonzero;stroke:none"
             d="m 2694.75,4090.61 c 0,0 -9.55,-29.25 -22.13,-41.08 -12.59,-11.83 -23.06,-15.38 -23.06,-15.38 l 22.59,60.67 22.6,-4.21" /><path
             id="path148"
             style="fill:#6f3d27;fill-opacity:1;fill-rule:nonzero;stroke:none"
             d="m 2450.99,4090.61 c 0,0 9.55,-29.25 22.13,-41.08 12.58,-11.83 23.06,-15.38 23.06,-15.38 l -22.6,60.67 -22.59,-4.21" /><path
             id="path150"
             style="fill:#ffffff;fill-opacity:1;fill-rule:nonzero;stroke:none"
             d="m 2797.12,3809.71 c -19.29,105.13 -35.14,157.97 -153.4,162.92 l -72.74,-89.48 -72.74,89.48 c -118.26,-4.95 -134.11,-57.79 -153.4,-162.92 -10.41,-56.74 -12.41,-134.78 -12.41,-134.78 h 237.67 1.77 237.67 c 0,0 -2.02,78.04 -12.42,134.78" /><path
             id="path152"
             style="fill:#fbcb75;fill-opacity:1;fill-rule:nonzero;stroke:none"
             d="m 2630.91,3995.59 c 0,12.15 0,78.96 0,78.96 h -60.3 -60.31 c 0,0 0,-66.81 0,-78.96 0,-18.22 -4.63,-20.9 -12.66,-23.82 13.01,-22.64 32.64,-119.79 74.99,-120.13 42.35,0.34 57.93,97.49 70.94,120.13 -8.03,2.92 -12.66,5.6 -12.66,23.82" /><path
             id="path154"
             style="fill:#fbcb75;fill-opacity:1;fill-rule:nonzero;stroke:none"
             d="m 2686.03,4084.72 c 17.98,-3.76 33.27,20.84 33.27,46.74 0,14.53 -9.37,31.21 -24.06,27.82 -18.56,-4.3 -21.63,-21.72 -21.63,-21.72 v -40.42 c 0,0 2.84,-10.42 12.42,-12.42" /><path
             id="path156"
             style="fill:#f4ac6b;fill-opacity:1;fill-rule:nonzero;stroke:none"
             d="m 2681.91,4090.63 c 12.02,-2.84 22.24,15.75 22.24,35.32 0,10.98 -6.26,23.58 -16.08,21.02 -12.41,-3.25 -14.46,-16.41 -14.46,-16.41 v -30.54 c 0,0 1.9,-7.88 8.3,-9.39" /><path
             id="path158"
             style="fill:#fbcb75;fill-opacity:1;fill-rule:nonzero;stroke:none"
             d="m 2461.19,4084.72 c -17.99,-3.76 -33.27,20.84 -33.27,46.74 0,14.52 9.37,31.21 24.06,27.82 18.56,-4.3 21.63,-21.72 21.63,-21.72 v -40.42 c 0,0 -2.84,-10.42 -12.42,-12.42" /><path
             id="path160"
             style="fill:#f4ac6b;fill-opacity:1;fill-rule:nonzero;stroke:none"
             d="m 2465.31,4090.63 c -12.02,-2.84 -22.24,15.75 -22.24,35.32 0,10.98 6.26,23.58 16.08,21.02 12.41,-3.25 14.46,-16.41 14.46,-16.41 v -30.54 c 0,0 -1.9,-7.88 -8.3,-9.39" /><path
             id="path162"
             style="fill:#f4ac6b;fill-opacity:1;fill-rule:nonzero;stroke:none"
             d="m 2570.61,4073.73 h -60.31 c 0,0 0,-34.03 0,-57.93 18.2,-20.9 41.85,-33.17 73.33,-33.84 18.23,0.39 33.83,4.67 47.28,12.24 v 0.57 c 0,12.14 0,78.96 0,78.96 h -60.3" /><path
             id="path164"
             style="fill:#fbcb75;fill-opacity:1;fill-rule:nonzero;stroke:none"
             d="m 2660.66,4241.37 c -34.47,24.39 -139.62,24.39 -174.1,0 -27.21,-19.26 -39.26,-87.84 -23.31,-141.35 19.22,-64.52 50.95,-106.78 110.36,-108.04 59.41,1.26 91.14,43.52 110.36,108.04 15.95,53.51 3.9,122.09 -23.31,141.35" /><path
             id="path166"
             style="fill:#881a1e;fill-opacity:1;fill-rule:nonzero;stroke:none"
             d="m 2620.37,3674.93 h -99.52 l 22.39,192.63 h 54.74 l 22.39,-192.63" /><path
             id="path168"
             style="fill:#61161b;fill-opacity:1;fill-rule:nonzero;stroke:none"
             d="m 2560.2,3910.33 h 21.68 l 20.53,-51.82 c 2.28,-5.75 -2.06,-11.95 -8.3,-11.86 l -46.5,0.63 c -6.16,0.08 -10.32,6.25 -8.04,11.91 l 20.63,51.14" /><path
             id="path170"
             style="fill:#ededed;fill-opacity:1;fill-rule:nonzero;stroke:none"
             d="m 2527.07,3944.97 c 23.36,-23.28 33.6,-34.24 33.6,-34.24 0,0 -15.1,-58.44 -25.12,-48.56 -10.03,9.9 -62.02,83.06 -49.18,110.46 2.59,5.53 22.89,11.14 22.89,11.14 0,0 1.04,-22.1 17.81,-38.8" /><path
             id="path172"
             style="fill:#ededed;fill-opacity:1;fill-rule:nonzero;stroke:none"
             d="m 2614.21,3944.97 c -23.36,-23.28 -33.61,-34.24 -33.61,-34.24 0,0 15.11,-58.45 25.13,-48.56 10.03,9.9 62.01,83.06 49.18,110.46 -2.6,5.53 -22.9,11.14 -22.9,11.14 0,0 -1.04,-22.1 -17.8,-38.8" /><path
             id="path174"
             style="fill:#6f3d27;fill-opacity:1;fill-rule:nonzero;stroke:none"
             d="m 2455.5,4153.4 c 0,0 -0.05,-10 0.39,-15.37 0.44,-5.37 2.45,-19.21 2.45,-19.21 0,0 20.68,45.56 49.46,56.57 28.79,11 54.18,14.81 73.65,27.51 19.47,12.7 38.1,20.32 38.1,20.32 0,0 30.05,-49.58 39.37,-52.31 9.31,-2.72 13.12,-10.77 17.35,-20.93 4.23,-10.15 11.04,-36.64 11.04,-36.64 0,0 5.59,17.18 5.94,25.85 0.34,8.68 0.26,19.46 0.26,19.46 0,0 3.85,1.01 6.89,0.47 3.4,-0.6 4.82,-0.73 4.82,-0.73 0,0 5.05,37.97 0.17,64.4 -4.53,24.51 -20.18,82.97 -67.22,78.73 -3.61,-0.32 -7.74,4.16 -16.51,8.63 -13.41,6.85 -37.69,13.7 -87.61,3.33 -29.47,-6.12 -60.32,-23.38 -78.62,-62.05 -9.44,-19.96 -9.64,-92.07 -9.64,-92.07 0,0 3.22,-0.84 5.65,-2.13 2.04,-1.08 4.06,-3.83 4.06,-3.83" /><path
             id="path176"
             style="fill:#3c8836;fill-opacity:1;fill-rule:nonzero;stroke:none"
             d="m 2571.87,3674.93 h 237.67 c 0,0 -2.02,78.04 -12.42,134.78 -16.55,90.22 -30.64,141.89 -109.02,157.87 -17.94,-54.77 -65.39,-178.65 -117.49,-179.5 -52.08,0.85 -99.52,124.49 -117.48,179.36 -77.74,-16.16 -91.79,-67.79 -108.29,-157.73 -10.41,-56.74 -12.41,-134.78 -12.41,-134.78 h 237.66 1.78" /></g></g><path
         id="path178"
         style="fill:#e64927;fill-opacity:1;fill-rule:nonzero;stroke:none"
         d="m 2800.25,3790.37 c -0.95,6.61 -1.99,13.1 -3.13,19.34 -18.64,101.63 -34.09,154.39 -141.92,162.26 -0.1,0.22 -0.19,0.44 -0.29,0.66 -2.6,5.53 -22.9,11.14 -22.9,11.14 0,0 0,-0.09 -0.02,-0.27 -0.71,3.02 -1.08,6.93 -1.08,12.09 0,3.06 0,8.48 0,15.1 9.41,7.03 17.62,15.9 24.85,26.37 4.23,2.33 10.25,6.26 16.86,12.47 9,8.46 16.45,25.85 19.96,35.05 14.99,2.51 26.72,24.19 26.72,46.88 0,10.88 -5.26,22.98 -14.08,26.93 0.06,0.44 5.02,38.13 0.17,64.4 -4.37,23.66 -19.11,78.95 -62.43,78.95 -1.56,0 -3.15,-0.07 -4.79,-0.22 -0.12,-0.01 -0.25,-0.01 -0.37,-0.01 -3.53,0 -7.67,4.32 -16.14,8.64 -8.46,4.32 -21.25,8.64 -42.06,8.64 -2.85,0 -5.84,-0.08 -8.99,-0.25 v 157.62 c 210.6,0 381.33,-170.73 381.33,-381.34 0,-124.37 -59.55,-234.84 -151.69,-304.45" /><path
         id="path180"
         style="fill:#633724;fill-opacity:1;fill-rule:nonzero;stroke:none"
         d="m 2655.76,4037.06 c 9.73,14.12 17.65,31.14 24.24,50.48 1.62,-1.27 3.61,-2.32 6.03,-2.82 1.23,-0.26 2.45,-0.38 3.65,-0.38 0.98,0 1.95,0.08 2.9,0.24 -3.51,-9.2 -10.96,-26.59 -19.96,-35.05 -6.61,-6.21 -12.63,-10.14 -16.86,-12.47" /><path
         id="path182"
         style="fill:#e7e7e6;fill-opacity:1;fill-rule:nonzero;stroke:none"
         d="m 2800.25,3790.37 c -0.95,6.61 -1.99,13.1 -3.13,19.34 -16.55,90.22 -30.64,141.89 -109.02,157.87 -13.86,-42.29 -45.31,-125.81 -82.91,-162.04 l -5.04,43.37 c 2.54,2.3 3.67,6.04 2.26,9.6 l -1.31,3.29 c 0.75,-0.49 1.48,-0.75 2.2,-0.75 0.84,0 1.65,0.35 2.43,1.12 9.95,9.82 61.2,81.91 49.47,109.8 107.83,-7.87 123.28,-60.63 141.92,-162.26 1.14,-6.24 2.18,-12.73 3.13,-19.34 v 0 0" /><path
         id="path184"
         style="fill:#e3b566;fill-opacity:1;fill-rule:nonzero;stroke:none"
         d="m 2580.71,3910.33 h -10.1 v 72.62 c 4.18,-0.56 8.52,-0.89 13.02,-0.99 18.23,0.39 33.83,4.67 47.28,12.24 v 0.57 c 0,0.25 0,0.52 0,0.82 0,-5.16 0.37,-9.07 1.08,-12.09 -0.18,-2.61 -2.12,-22.93 -17.78,-38.53 -23.36,-23.28 -33.61,-34.24 -33.61,-34.24 0,0 0.04,-0.14 0.11,-0.4" /><path
         id="path186"
         style="fill:#e3b566;fill-opacity:1;fill-rule:nonzero;stroke:none"
         d="m 2689.68,4084.34 c -1.2,0 -2.42,0.12 -3.65,0.38 -2.42,0.5 -4.41,1.55 -6.03,2.82 0.37,1.1 0.74,2.21 1.11,3.32 0.26,-0.09 0.53,-0.17 0.8,-0.23 0.83,-0.2 1.64,-0.29 2.44,-0.29 10.94,0 19.8,17.37 19.8,35.61 0,8.81 -4.03,18.66 -10.7,20.89 0.1,6.31 0.06,11.81 0.06,11.81 0,0 2.39,0.63 4.9,0.63 0.67,0 1.35,-0.05 1.99,-0.16 3.4,-0.6 4.82,-0.73 4.82,-0.73 v 0 c 8.82,-3.95 14.08,-16.05 14.08,-26.93 0,-22.69 -11.73,-44.37 -26.72,-46.88 -0.95,-0.16 -1.92,-0.24 -2.9,-0.24" /><path
         id="path188"
         style="fill:#db9a61;fill-opacity:1;fill-rule:nonzero;stroke:none"
         d="m 2684.35,4090.34 c -0.8,0 -1.61,0.09 -2.44,0.29 -0.27,0.06 -0.54,0.14 -0.8,0.23 0.98,3 1.94,6.05 2.86,9.16 1.3,4.36 2.42,8.82 3.35,13.34 0.21,0.65 5.59,17.33 5.93,25.83 0.1,2.48 0.16,5.13 0.2,7.65 6.67,-2.23 10.7,-12.08 10.7,-20.89 0,-18.24 -8.86,-35.61 -19.8,-35.61" /><path
         id="path190"
         style="fill:#db9a61;fill-opacity:1;fill-rule:nonzero;stroke:none"
         d="m 2583.63,3981.96 c -4.5,0.1 -8.84,0.43 -13.02,0.99 v 9.13 c 0.99,-0.04 1.99,-0.08 3,-0.1 22.93,0.49 41.74,7.08 57.3,18.71 0,-6.62 0,-12.04 0,-15.1 0,-0.3 0,-0.57 0,-0.82 v -0.57 c -13.45,-7.57 -29.05,-11.85 -47.28,-12.24" /><path
         id="path192"
         style="fill:#e3b566;fill-opacity:1;fill-rule:nonzero;stroke:none"
         d="m 2573.61,3991.98 c -1.01,0.02 -2.01,0.06 -3,0.1 v 204.84 c 3.79,1.78 7.41,3.74 10.84,5.98 19.47,12.7 38.1,20.32 38.1,20.32 0,0 30.05,-49.58 39.37,-52.31 9.31,-2.72 13.12,-10.77 17.35,-20.93 4.23,-10.15 11.04,-36.64 11.04,-36.64 0,0 0.01,0.01 0.01,0.02 -0.93,-4.52 -2.05,-8.98 -3.35,-13.34 -0.92,-3.11 -1.88,-6.16 -2.86,-9.16 -0.37,-1.11 -0.74,-2.22 -1.11,-3.32 -6.59,-19.34 -14.51,-36.36 -24.24,-50.48 -7.23,-10.47 -15.44,-19.34 -24.85,-26.37 -15.56,-11.63 -34.37,-18.22 -57.3,-18.71" /><path
         id="path194"
         style="fill:#79181d;fill-opacity:1;fill-rule:nonzero;stroke:none"
         d="m 2570.61,3788.08 v 0 58.88 l 23.5,-0.31 c 0.04,0 0.08,-0.01 0.12,-0.01 2.33,0 4.38,0.88 5.92,2.27 l 5.04,-43.37 c -11.09,-10.69 -22.72,-17.27 -34.58,-17.46" /><path
         id="path196"
         style="fill:#561519;fill-opacity:1;fill-rule:nonzero;stroke:none"
         d="m 2594.23,3846.64 c -0.04,0 -0.08,0.01 -0.12,0.01 l -23.5,0.31 v 63.37 h 10.1 c 1.15,-4.37 11.47,-42.64 20.39,-48.53 l 1.31,-3.29 c 1.41,-3.56 0.28,-7.3 -2.26,-9.6 -1.54,-1.39 -3.59,-2.27 -5.92,-2.27" /><path
         id="path198"
         style="fill:#d4d4d2;fill-opacity:1;fill-rule:nonzero;stroke:none"
         d="m 2603.3,3861.05 c -0.72,0 -1.45,0.26 -2.2,0.75 -8.92,5.89 -19.24,44.16 -20.39,48.53 -0.07,0.26 -0.11,0.4 -0.11,0.4 0,0 10.25,10.96 33.61,34.24 15.66,15.6 17.6,35.92 17.78,38.53 0.02,0.18 0.02,0.27 0.02,0.27 0,0 20.3,-5.61 22.9,-11.14 0.1,-0.22 0.19,-0.44 0.29,-0.66 11.73,-27.89 -39.52,-99.98 -49.47,-109.8 -0.78,-0.77 -1.59,-1.12 -2.43,-1.12" /><path
         id="path200"
         style="fill:#633724;fill-opacity:1;fill-rule:nonzero;stroke:none"
         d="m 2687.31,4113.34 c 0,0 -6.81,26.49 -11.04,36.64 -4.23,10.16 -8.04,18.21 -17.35,20.93 -9.32,2.73 -39.37,52.31 -39.37,52.31 0,0 -18.63,-7.62 -38.1,-20.32 -3.43,-2.24 -7.05,-4.2 -10.84,-5.98 v 121.62 c 3.15,0.17 6.14,0.25 8.99,0.25 20.81,0 33.6,-4.32 42.06,-8.64 8.47,-4.32 12.61,-8.64 16.14,-8.64 0.12,0 0.25,0 0.37,0.01 1.64,0.15 3.23,0.22 4.79,0.22 43.32,0 58.06,-55.29 62.43,-78.95 4.85,-26.27 -0.11,-63.96 -0.17,-64.4 v 0 c 0,0 -1.42,0.13 -4.82,0.73 -0.64,0.11 -1.32,0.16 -1.99,0.16 -2.51,0 -4.9,-0.63 -4.9,-0.63 0,0 0.04,-5.5 -0.06,-11.81 -0.04,-2.52 -0.1,-5.17 -0.2,-7.65 -0.34,-8.5 -5.72,-25.18 -5.93,-25.83 0,-0.01 -0.01,-0.02 -0.01,-0.02" /><path
         id="path202"
         style="fill:#367832;fill-opacity:1;fill-rule:nonzero;stroke:none"
         d="m 2570.61,3713.49 v 74.59 0 c 11.86,0.19 23.49,6.77 34.58,17.46 37.6,36.23 69.05,119.75 82.91,162.04 78.38,-15.98 92.47,-67.65 109.02,-157.87 1.14,-6.24 2.18,-12.73 3.13,-19.34 -63.87,-48.26 -143.42,-76.88 -229.64,-76.88" /><path
         id="path204"
         style="fill:#f14f33;fill-opacity:1;fill-rule:nonzero;stroke:none"
         d="M 4341.06,4220.87 H 3244.47 c -18.84,0 -34.11,-15.27 -34.11,-34.11 0,-18.84 15.27,-34.12 34.11,-34.12 h 1096.59 c 18.84,0 34.12,15.28 34.12,34.12 0,18.84 -15.28,34.11 -34.12,34.11" /><path
         id="path206"
         style="fill:#f14f33;fill-opacity:1;fill-rule:nonzero;stroke:none"
         d="M 4341.06,4052.96 H 3244.47 c -18.84,0 -34.11,-15.27 -34.11,-34.11 0,-18.84 15.27,-34.11 34.11,-34.11 h 1096.59 c 18.84,0 34.12,15.27 34.12,34.11 0,18.84 -15.28,34.11 -34.12,34.11" /><path
         id="path208"
         style="fill:#f14f33;fill-opacity:1;fill-rule:nonzero;stroke:none"
         d="M 4341.06,3885.06 H 3244.47 c -18.84,0 -34.11,-15.27 -34.11,-34.12 0,-18.84 15.27,-34.11 34.11,-34.11 h 1096.59 c 18.84,0 34.12,15.27 34.12,34.11 0,18.85 -15.28,34.12 -34.12,34.12" /><path
         id="path210"
         style="fill:#f14f33;fill-opacity:1;fill-rule:nonzero;stroke:none"
         d="m 4283.59,4351.39 c 0,25.29 20.5,45.79 45.79,45.79 25.29,0 45.8,-20.5 45.8,-45.79 0,-25.29 -20.51,-45.79 -45.8,-45.79 -25.29,0 -45.79,20.5 -45.79,45.79" /><path
         id="path212"
         style="fill:#f14f33;fill-opacity:1;fill-rule:nonzero;stroke:none"
         d="m 4134.6,4351.39 c 0,25.29 20.5,45.79 45.8,45.79 25.28,0 45.79,-20.5 45.79,-45.79 0,-25.29 -20.51,-45.79 -45.79,-45.79 -25.3,0 -45.8,20.5 -45.8,45.79" /><path
         id="path214"
         style="fill:#f14f33;fill-opacity:1;fill-rule:nonzero;stroke:none"
         d="m 3985.62,4351.39 c 0,25.29 20.5,45.79 45.79,45.79 25.29,0 45.79,-20.5 45.79,-45.79 0,-25.29 -20.5,-45.79 -45.79,-45.79 -25.29,0 -45.79,20.5 -45.79,45.79" /><path
         id="path216"
         style="fill:#d14225;fill-opacity:1;fill-rule:nonzero;stroke:none"
         d="m 3136.75,3743.11 v -232.98 c 0,-37.65 45.53,-56.51 72.15,-29.89 l 270.78,270.78 -342.93,-7.91" /><path
         id="path218"
         style="fill:#8355b0;fill-opacity:1;fill-rule:nonzero;stroke:none"
         d="M 2232.64,3544.6 H 1159.73 c -219.546,0 -397.515,-177.97 -397.515,-397.52 0,-219.54 177.969,-397.51 397.515,-397.51 h 1072.91 c 219.54,0 397.52,177.97 397.52,397.51 0,219.55 -177.98,397.52 -397.52,397.52" /><path
         id="path220"
         style="fill:#9c71c0;fill-opacity:1;fill-rule:nonzero;stroke:none"
         d="m 1502.48,3147.08 c 0,-183.47 -148.74,-332.21 -332.22,-332.21 -183.479,0 -332.213,148.74 -332.213,332.21 0,183.48 148.734,332.22 332.213,332.22 183.48,0 332.22,-148.74 332.22,-332.22" /><g
         id="g222"><g
           clip-path="url(#clipPath228)"
           id="g224"><path
             id="path230"
             style="fill:#fccf7a;fill-opacity:1;fill-rule:nonzero;stroke:none"
             d="m 1291.87,3026.39 c -20.6,0.56 -39.52,-19.71 -26.27,-70.24 30.29,-115.56 30.84,-155.81 30.84,-155.81 h 59.02 c 0,0 -15.06,69.32 -16.93,129.56 -1.88,60.73 -30.09,96.04 -46.66,96.49" /><path
             id="path232"
             style="fill:#fccf7a;fill-opacity:1;fill-rule:nonzero;stroke:none"
             d="m 1049.41,3026.39 c 20.6,0.56 39.52,-19.71 26.27,-70.24 -30.28,-115.56 -30.83,-155.81 -30.83,-155.81 h -59.026 c 0,0 15.056,69.32 16.926,129.56 1.88,60.73 30.09,96.04 46.66,96.49" /><path
             id="path234"
             style="fill:#f79636;fill-opacity:1;fill-rule:nonzero;stroke:none"
             d="m 1237.16,3054.43 c 0,0 -46.95,-48.91 -67.83,-48.78 -20.54,0.13 -66.11,48.78 -66.11,48.78 -56.77,0 -102.8,-43.67 -102.8,-97.55 0,-0.98 0,-3.9 0,-3.9 0,-1.69 1.47,-2.77 3.22,-3.06 15.25,-2.56 58.45,-32.71 58.45,-32.71 v -49.38 -67.49 l 215.05,0.45 v 67.58 49.49 c 0,0 44.81,28.83 59.16,32.49 1.74,0.44 3.25,1.36 3.25,3.05 l 0.41,3.48 c 3.18,53.78 -46.03,97.55 -102.8,97.55" /><path
             id="path236"
             style="fill:#fccf7a;fill-opacity:1;fill-rule:nonzero;stroke:none"
             d="m 1216.31,3072.19 c 0,9.76 0,63.46 0,63.46 h -48.82 -48.81 c 0,0 0,-53.7 0,-63.46 0,-14.64 -18.56,-16.96 -25.01,-19.3 -6.64,-37.21 39.29,-65.24 73.58,-65.24 34.3,0 78.63,32.43 74.08,65.24 -6.46,2.34 -25.02,4.66 -25.02,19.3" /><path
             id="path238"
             style="fill:#f3be5d;fill-opacity:1;fill-rule:nonzero;stroke:none"
             d="m 1217.07,3067.47 c -0.48,1.42 -0.76,2.97 -0.76,4.72 0,9.76 0,63.46 0,63.46 h -48.82 -48.81 c 0,0 0,-25.56 0,-43.98 14.53,-22.96 34.51,-33.21 62.85,-33.84 13.68,0.31 25.42,3.67 35.54,9.64" /><path
             id="path240"
             style="fill:#fccf7a;fill-opacity:1;fill-rule:nonzero;stroke:none"
             d="m 1238.85,3271.77 c -27.16,19.61 -110.01,19.61 -137.18,0 -21.44,-15.47 -30.93,-70.59 -18.36,-113.61 15.14,-51.85 40.14,-85.81 86.95,-86.82 46.82,1.01 71.82,34.97 86.96,86.82 12.56,43.02 3.07,98.14 -18.37,113.61" /><path
             id="path242"
             style="fill:#89582d;fill-opacity:1;fill-rule:nonzero;stroke:none"
             d="m 1200.26,3256.98 c 0,0 33.57,-30.84 38.48,-44.52 6.91,-19.26 5.25,-81.31 5.25,-81.31 l 28.52,54.13 c 0,0 4.77,23.95 1.2,48.36 -19.77,135.21 -202.86,114.87 -209.56,-0.21 -1.01,-17.15 1.72,-48.47 1.72,-48.47 l 27.47,-47.05 c 0,0 -20.07,71.97 0.35,75.35 48.31,8 106.57,43.72 106.57,43.72" /><path
             id="path244"
             style="fill:#89582d;fill-opacity:1;fill-rule:nonzero;stroke:none"
             d="m 1066.02,3242.88 c 0,0 -19.71,-82.97 -21.8,-112.58 -5.68,-80.31 80.81,-55.72 71.25,-35.72 -34.9,72.93 -49.45,148.3 -49.45,148.3" /><path
             id="path246"
             style="fill:#89582d;fill-opacity:1;fill-rule:nonzero;stroke:none"
             d="m 1270.76,3243.64 c 0,0 19.7,-82.97 21.8,-112.58 5.67,-80.31 -83.57,-58.28 -72.46,-38.91 40.7,70.91 50.66,151.49 50.66,151.49" /></g></g><g
         id="g248"><g
           clip-path="url(#clipPath254)"
           id="g250"><path
             id="path256"
             style="fill:#9062b7;fill-opacity:1;fill-rule:nonzero;stroke:none"
             d="m 1170.26,2832.44 h 332.219 v 646.859 H 1170.26 Z" /></g></g><path
         id="path258"
         style="fill:#e3b96a;fill-opacity:1;fill-rule:nonzero;stroke:none"
         d="m 1291.9,2837.84 v 0 c -2.82,17.09 -7.37,40.65 -14.76,72.01 v 8.01 c 0,0 44.81,28.83 59.16,32.49 0.17,0.04 0.34,0.09 0.5,0.14 0.91,-6.49 1.51,-13.36 1.73,-20.59 0.68,-21.98 3.12,-45.16 5.94,-65.75 v 0 c -16.61,-10.25 -34.19,-19.07 -52.57,-26.31" /><path
         id="path260"
         style="fill:#e48630;fill-opacity:1;fill-rule:nonzero;stroke:none"
         d="m 1170.26,2814.87 v 172.86 c 33.82,1.81 75.49,33.3 71.07,65.16 -1.14,0.41 -2.67,0.83 -4.4,1.31 0.15,0.15 0.23,0.23 0.23,0.23 56.77,0 105.98,-43.77 102.8,-97.55 l -0.41,-3.48 c 0,-1.53 -1.23,-2.42 -2.75,-2.91 -0.16,-0.05 -0.33,-0.1 -0.5,-0.14 -14.35,-3.66 -59.16,-32.49 -59.16,-32.49 v -8.01 -41.48 -35.93 c -33.54,-11.39 -69.48,-17.57 -106.88,-17.57" /><path
         id="path262"
         style="fill:#e3b96a;fill-opacity:1;fill-rule:nonzero;stroke:none"
         d="m 1170.26,2987.73 v 70.92 c 3.6,-0.46 7.36,-0.74 11.27,-0.82 13.68,0.3 25.4,3.67 35.52,9.63 2.81,-8.36 13,-11.34 19.88,-13.26 1.73,-0.48 3.26,-0.9 4.4,-1.31 4.42,-31.86 -37.25,-63.35 -71.07,-65.16 m 46.05,84.38 c 0,0.03 0,0.06 0,0.08 v 0 c 0,-0.02 0,-0.05 0,-0.08" /><path
         id="path264"
         style="fill:#d8ab54;fill-opacity:1;fill-rule:nonzero;stroke:none"
         d="m 1181.53,3057.83 c -3.91,0.08 -7.67,0.36 -11.27,0.82 v 12.69 c 18.52,0.4 33.62,5.95 46.05,15.73 0,-6.79 0,-12.33 0,-14.88 v 0 c 0,-0.02 0,-0.05 0,-0.08 0.01,-1.71 0.29,-3.25 0.76,-4.64 -0.01,0 -0.01,-0.01 -0.02,-0.01 -10.12,-5.96 -21.84,-9.33 -35.52,-9.63" /><path
         id="path266"
         style="fill:#e3b96a;fill-opacity:1;fill-rule:nonzero;stroke:none"
         d="m 1170.26,3071.34 v 169.31 c 17.83,8.87 30,16.33 30,16.33 0,0 33.57,-30.84 38.48,-44.52 5.01,-13.96 5.52,-50.41 5.42,-69.41 -6.47,-16.7 -14.4,-34.07 -24.06,-50.9 -0.51,-0.9 -0.81,-1.8 -0.92,-2.71 -0.94,-0.81 -1.89,-1.6 -2.87,-2.37 -12.43,-9.78 -27.53,-15.33 -46.05,-15.73" /><path
         id="path268"
         style="fill:#7a4d29;fill-opacity:1;fill-rule:nonzero;stroke:none"
         d="m 1244.16,3143.05 c 0.1,19 -0.41,55.45 -5.42,69.41 -4.91,13.68 -38.48,44.52 -38.48,44.52 0,0 -12.17,-7.46 -30,-16.33 v 86.9 c 47.07,-0.09 93.98,-29.17 103.45,-93.91 0.29,-1.94 0.52,-3.89 0.7,-5.82 -2.18,9.62 -3.65,15.82 -3.65,15.82 0,0 -5.79,-46.88 -26.6,-100.59" /><path
         id="path270"
         style="fill:#7a4d29;fill-opacity:1;fill-rule:nonzero;stroke:none"
         d="m 1248.94,3073.95 c -16.28,0 -30.66,7.56 -29.76,15.49 0.11,0.91 0.41,1.81 0.92,2.71 9.66,16.83 17.59,34.2 24.06,50.9 20.81,53.71 26.6,100.59 26.6,100.59 0,0 1.47,-6.2 3.65,-15.82 5.81,-25.56 16.63,-75.25 18.15,-96.76 3.09,-43.72 -21.95,-57.11 -43.62,-57.11" /><path
         id="path272"
         style="fill:#9c71c0;fill-opacity:1;fill-rule:nonzero;stroke:none"
         d="m 2395.38,3256.9 h -638.05 c -16.41,0 -29.72,-13.31 -29.72,-29.72 0,-16.41 13.31,-29.72 29.72,-29.72 h 638.05 c 16.42,0 29.72,13.31 29.72,29.72 0,16.41 -13.3,29.72 -29.72,29.72" /><path
         id="path274"
         style="fill:#9c71c0;fill-opacity:1;fill-rule:nonzero;stroke:none"
         d="m 2395.38,3110.62 h -638.05 c -16.41,0 -29.72,-13.31 -29.72,-29.72 0,-16.41 13.31,-29.72 29.72,-29.72 h 638.05 c 16.42,0 29.72,13.31 29.72,29.72 0,16.41 -13.3,29.72 -29.72,29.72" /><path
         id="path276"
         style="fill:#9c71c0;fill-opacity:1;fill-rule:nonzero;stroke:none"
         d="m 2395.38,2964.34 h -638.05 c -16.41,0 -29.72,-13.31 -29.72,-29.72 0,-16.42 13.31,-29.72 29.72,-29.72 h 638.05 c 16.42,0 29.72,13.3 29.72,29.72 0,16.41 -13.3,29.72 -29.72,29.72" /><path
         id="path278"
         style="fill:#9c71c0;fill-opacity:1;fill-rule:nonzero;stroke:none"
         d="m 2345.31,3370.6 c 0,22.04 17.86,39.9 39.9,39.9 22.03,0 39.89,-17.86 39.89,-39.9 0,-22.03 -17.86,-39.89 -39.89,-39.89 -22.04,0 -39.9,17.86 -39.9,39.89" /><path
         id="path280"
         style="fill:#9c71c0;fill-opacity:1;fill-rule:nonzero;stroke:none"
         d="m 2215.51,3370.6 c 0,22.04 17.86,39.9 39.9,39.9 22.03,0 39.89,-17.86 39.89,-39.9 0,-22.03 -17.86,-39.89 -39.89,-39.89 -22.04,0 -39.9,17.86 -39.9,39.89" /><path
         id="path282"
         style="fill:#9c71c0;fill-opacity:1;fill-rule:nonzero;stroke:none"
         d="m 2085.72,3370.6 c 0,22.04 17.86,39.9 39.89,39.9 22.03,0 39.89,-17.86 39.89,-39.9 0,-22.03 -17.86,-39.89 -39.89,-39.89 -22.03,0 -39.89,17.86 -39.89,39.89" /><path
         id="path284"
         style="fill:#8355b0;fill-opacity:1;fill-rule:nonzero;stroke:none"
         d="M 2346.17,2840.67 V 2637.7 c 0,-32.81 -39.67,-49.23 -62.86,-26.04 l -235.9,235.9 298.76,-6.89" /><path
         id="path286"
         style="fill:#53c168;fill-opacity:1;fill-rule:nonzero;stroke:none"
         d="M 4317.11,3076.05 H 3052.04 c -199.78,0 -361.73,-161.95 -361.73,-361.73 0,-199.78 161.95,-361.73 361.73,-361.73 h 1265.07 c 199.78,0 361.74,161.95 361.74,361.73 0,199.78 -161.96,361.73 -361.74,361.73" /><path
         id="path288"
         style="fill:#74cc70;fill-opacity:1;fill-rule:nonzero;stroke:none"
         d="m 4465.21,2814.24 h -869.36 c -14.94,0 -27.04,-12.1 -27.04,-27.04 0,-14.93 12.1,-27.04 27.04,-27.04 h 869.36 c 14.93,0 27.04,12.11 27.04,27.04 0,14.94 -12.11,27.04 -27.04,27.04" /><path
         id="path290"
         style="fill:#74cc70;fill-opacity:1;fill-rule:nonzero;stroke:none"
         d="m 4465.21,2681.13 h -869.36 c -14.94,0 -27.04,-12.11 -27.04,-27.04 v 0 c 0,-14.93 12.1,-27.04 27.04,-27.04 h 869.36 c 14.93,0 27.04,12.11 27.04,27.04 v 0 c 0,14.93 -12.11,27.04 -27.04,27.04" /><path
         id="path292"
         style="fill:#74cc70;fill-opacity:1;fill-rule:nonzero;stroke:none"
         d="m 4465.21,2548.02 h -869.36 c -14.94,0 -27.04,-12.11 -27.04,-27.04 0,-14.94 12.1,-27.04 27.04,-27.04 h 869.36 c 14.93,0 27.04,12.1 27.04,27.04 0,14.93 -12.11,27.04 -27.04,27.04" /><path
         id="path294"
         style="fill:#74cc70;fill-opacity:1;fill-rule:nonzero;stroke:none"
         d="m 4419.64,2917.71 c 0,20.05 16.26,36.31 36.31,36.31 20.05,0 36.3,-16.26 36.3,-36.31 0,-20.04 -16.25,-36.3 -36.3,-36.3 -20.05,0 -36.31,16.26 -36.31,36.3" /><path
         id="path296"
         style="fill:#74cc70;fill-opacity:1;fill-rule:nonzero;stroke:none"
         d="m 4301.53,2917.71 c 0,20.05 16.25,36.31 36.3,36.31 20.05,0 36.31,-16.26 36.31,-36.31 0,-20.04 -16.26,-36.3 -36.31,-36.3 -20.05,0 -36.3,16.26 -36.3,36.3" /><path
         id="path298"
         style="fill:#74cc70;fill-opacity:1;fill-rule:nonzero;stroke:none"
         d="m 4183.41,2917.71 c 0,20.05 16.26,36.31 36.31,36.31 20.05,0 36.3,-16.26 36.3,-36.31 0,-20.04 -16.25,-36.3 -36.3,-36.3 -20.05,0 -36.31,16.26 -36.31,36.3" /><path
         id="path300"
         style="fill:#53c168;fill-opacity:1;fill-rule:nonzero;stroke:none"
         d="m 2968.19,2435.49 v -184.71 c 0,-29.84 36.09,-44.79 57.2,-23.69 l 214.66,214.67 -271.86,-6.27" /><path
         id="path302"
         style="fill:#3aab5a;fill-opacity:1;fill-rule:nonzero;stroke:none"
         d="m 3356.39,2710.27 c 0,-164.95 -133.72,-298.67 -298.67,-298.67 -164.95,0 -298.67,133.72 -298.67,298.67 0,164.95 133.72,298.67 298.67,298.67 164.95,0 298.67,-133.72 298.67,-298.67" /><g
         id="g304"><g
           clip-path="url(#clipPath310)"
           id="g306"><path
             id="path312"
             style="fill:#89582d;fill-opacity:1;fill-rule:nonzero;stroke:none"
             d="m 2966.61,2814.49 c 0,0 -17.72,-109.38 -19.6,-148.42 -5.11,-105.88 74.88,-52.78 78.68,-25.32 2.23,16.06 -20.56,21.28 -23.22,55.84 -4.14,53.84 -35.86,117.9 -35.86,117.9" /><path
             id="path314"
             style="fill:#89582d;fill-opacity:1;fill-rule:nonzero;stroke:none"
             d="m 3151.2,2814.49 c 0,0 17.72,-109.38 19.6,-148.42 5.1,-105.88 -74.88,-52.78 -78.69,-25.32 -2.22,16.06 27.92,21 30.59,55.56 4.14,53.84 28.5,118.18 28.5,118.18" /><path
             id="path316"
             style="fill:#fbc35b;fill-opacity:1;fill-rule:nonzero;stroke:none"
             d="m 3219.36,2398.76 h -46.27 l -31.35,127.51 31.35,90.37 c 0,0 46.27,-25.89 44.42,-105.75 -1.01,-44.1 1.85,-112.13 1.85,-112.13" /><path
             id="path318"
             style="fill:#fbc35b;fill-opacity:1;fill-rule:nonzero;stroke:none"
             d="m 2896.08,2398.76 h 46.26 l 31.36,127.51 -31.36,90.37 c 0,0 -46.26,-25.89 -44.42,-105.75 1.02,-44.1 -1.84,-112.13 -1.84,-112.13" /><path
             id="path320"
             style="fill:#ffffff;fill-opacity:1;fill-rule:nonzero;stroke:none"
             d="m 3121.93,2628.25 h -128.54 c -14.42,0 -38.55,-6.5 -51.16,-11.64 0,0 9.74,-58.5 9.74,-87.35 0,-25.61 0,-130.5 0,-130.5 h 78.92 26.77 26.77 78.91 c 0,0 0,104.89 0,130.5 0,28.85 9.75,87.35 9.75,87.35 -12.61,5.14 -36.74,11.64 -51.16,11.64" /><path
             id="path322"
             style="fill:#fbc35b;fill-opacity:1;fill-rule:nonzero;stroke:none"
             d="m 3101.71,2642.94 c 0,8.78 0,57.06 0,57.06 h -43.88 -43.89 c 0,0 0,-48.28 0,-57.06 0,-13.16 -16.69,-15.24 -22.49,-17.36 9.44,-16.42 35.55,-35.3 66.38,-35.3 30.83,0 56.94,18.88 66.37,35.3 -5.8,2.12 -22.49,4.2 -22.49,17.36" /><path
             id="path324"
             style="fill:#e8aa42;fill-opacity:1;fill-rule:nonzero;stroke:none"
             d="m 3102.39,2638.7 c -0.42,1.27 -0.68,2.67 -0.68,4.24 0,8.78 0,57.06 0,57.06 h -43.88 -43.89 c 0,0 0,-22.99 0,-39.56 13.07,-20.63 31.03,-29.84 56.5,-30.42 12.31,0.28 22.86,3.31 31.95,8.68" /><path
             id="path326"
             style="fill:#fbc35b;fill-opacity:1;fill-rule:nonzero;stroke:none"
             d="m 3119.6,2822.37 c -23.48,17.63 -95.09,17.63 -118.57,0 -18.53,-13.91 -26.73,-63.47 -15.87,-102.14 13.08,-46.61 34.69,-77.15 75.16,-78.06 40.46,0.91 62.07,31.45 75.16,78.06 10.85,38.67 2.65,88.23 -15.88,102.14" /><path
             id="path328"
             style="fill:#89582d;fill-opacity:1;fill-rule:nonzero;stroke:none"
             d="m 3009.38,2813.14 c 0,0 51.5,-22.61 80.62,-30.29 18.75,-4.95 30.39,-5.36 38.55,-14.45 6.8,-7.56 2.96,-74.28 2.96,-74.28 l 23,41.27 c 0,0 2.02,45.58 -1.19,67.52 -17.78,121.55 -182.38,103.27 -188.41,-0.19 -0.9,-15.41 1.55,-43.58 1.55,-43.58 l 17.97,-67.49 c 0,0 -5.35,79.06 7.04,92.94 13.73,15.38 17.91,28.55 17.91,28.55" /></g></g><path
         id="path330"
         style="fill:#349953;fill-opacity:1;fill-rule:nonzero;stroke:none"
         d="m 3163.34,2430.82 c 0,2.45 0,4.98 0,7.59 l 1.71,-6.94 c -0.57,-0.22 -1.14,-0.44 -1.71,-0.65 m 54.27,27.14 c -0.32,17.87 -0.46,36.97 -0.1,52.93 1.85,79.86 -44.42,105.75 -44.42,105.75 l -0.01,-0.03 c -2.41,0.99 -5.25,2.02 -8.36,3.05 4.64,9.94 7.11,24.89 6.08,46.41 -1.41,29.09 -11.6,97.25 -16.71,130.1 -0.21,2.41 -0.47,4.68 -0.77,6.74 -0.51,3.5 -1.15,6.89 -1.89,10.16 -0.15,0.93 -0.23,1.42 -0.23,1.42 0,0 -0.03,-0.06 -0.07,-0.17 -12.07,50.3 -51.51,73.02 -91.01,73.02 -0.8,0 -1.6,-0.01 -2.4,-0.03 v 121.63 c 164.95,0 298.67,-133.72 298.67,-298.67 0,-106.13 -55.36,-199.33 -138.78,-252.31 m -105.93,210.33 c 1.04,1.35 2.06,2.74 3.06,4.18 -0.98,-1.48 -2.01,-2.87 -3.06,-4.18" /><path
         id="path332"
         style="fill:#7a4d29;fill-opacity:1;fill-rule:nonzero;stroke:none"
         d="m 3164.72,2619.66 c -13.14,4.35 -31.14,8.59 -42.79,8.59 h -6.6 c -5.34,1.83 -11.04,4.75 -12.95,10.44 0,0 0.01,0 0.01,0.01 -0.42,1.27 -0.68,2.67 -0.68,4.24 v 0 c 0,2.46 0,8.01 0,14.73 3.58,3.11 6.89,6.67 9.97,10.62 1.05,1.31 2.08,2.7 3.06,4.18 7.03,10.19 12.73,22.66 17.44,36.93 -0.3,-8.96 -0.67,-15.28 -0.67,-15.28 l 23,41.27 c 0,0 1.66,37.42 -0.42,60.78 5.11,-32.85 15.3,-101.01 16.71,-130.1 1.03,-21.52 -1.44,-36.47 -6.08,-46.41 m -13.29,193.41 c -0.1,0.42 -0.2,0.83 -0.3,1.25 0.04,0.11 0.07,0.17 0.07,0.17 0,0 0.08,-0.49 0.23,-1.42" /><path
         id="path334"
         style="fill:#e2af51;fill-opacity:1;fill-rule:nonzero;stroke:none"
         d="m 3165.05,2431.47 v 0 l -1.71,6.94 c 0,32.54 0,75.65 0,90.85 0,28.85 9.75,87.35 9.75,87.35 0,0 0,0 -0.01,0 l 0.01,0.03 c 0,0 46.27,-25.89 44.42,-105.75 -0.36,-15.96 -0.22,-35.06 0.1,-52.93 v 0 c -16.49,-10.47 -34.09,-19.38 -52.56,-26.49" /><path
         id="path336"
         style="fill:#e7e7e6;fill-opacity:1;fill-rule:nonzero;stroke:none"
         d="m 3057.72,2411.6 v 178.68 c 0.04,0 0.07,0 0.11,0 30.83,0 56.94,18.88 66.37,35.3 -2.02,0.74 -5.37,1.47 -8.87,2.67 h 6.6 c 11.65,0 29.65,-4.24 42.79,-8.59 3.11,-1.03 5.95,-2.06 8.36,-3.05 0.01,0 0.01,0 0.01,0 0,0 -9.75,-58.5 -9.75,-87.35 0,-15.2 0,-58.31 0,-90.85 0,-2.61 0,-5.14 0,-7.59 v 0 c -32.84,-12.42 -68.43,-19.22 -105.62,-19.22" /><path
         id="path338"
         style="fill:#e2af51;fill-opacity:1;fill-rule:nonzero;stroke:none"
         d="m 3057.83,2590.28 c -0.04,0 -0.07,0 -0.11,0 v 40.86 c 4.02,-0.65 8.25,-1.02 12.72,-1.12 12.3,0.28 22.84,3.3 31.94,8.67 1.91,-5.69 7.61,-8.61 12.95,-10.44 3.5,-1.2 6.85,-1.93 8.87,-2.67 -9.43,-16.42 -35.54,-35.3 -66.37,-35.3" /><path
         id="path340"
         style="fill:#d0993d;fill-opacity:1;fill-rule:nonzero;stroke:none"
         d="m 3070.44,2630.02 c -4.47,0.1 -8.7,0.47 -12.72,1.12 v 11.13 c 0.86,-0.04 1.72,-0.08 2.6,-0.1 16.8,0.38 30.35,5.87 41.39,15.5 0,-6.72 0,-12.27 0,-14.73 v 0 0 c 0,-1.57 0.26,-2.97 0.68,-4.24 0,-0.01 -0.01,-0.01 -0.01,-0.01 -9.1,-5.37 -19.64,-8.39 -31.94,-8.67" /><path
         id="path342"
         style="fill:#e2af51;fill-opacity:1;fill-rule:nonzero;stroke:none"
         d="m 3060.32,2642.17 c -0.88,0.02 -1.74,0.06 -2.6,0.1 v 151.26 c 11.44,-4.27 23,-8.23 32.28,-10.68 18.75,-4.95 30.39,-5.36 38.55,-14.45 4.71,-5.24 4.32,-38.83 3.63,-59 -4.71,-14.27 -10.41,-26.74 -17.44,-36.93 -1,-1.44 -2.02,-2.83 -3.06,-4.18 -3.08,-3.95 -6.39,-7.51 -9.97,-10.62 -11.04,-9.63 -24.59,-15.12 -41.39,-15.5" /><path
         id="path344"
         style="fill:#7a4d29;fill-opacity:1;fill-rule:nonzero;stroke:none"
         d="m 3131.51,2694.12 c 0,0 0.37,6.32 0.67,15.28 0.69,20.17 1.08,53.76 -3.63,59 -8.16,9.09 -19.8,9.5 -38.55,14.45 -9.28,2.45 -20.84,6.41 -32.28,10.68 v 93.78 c 0.8,0.02 1.6,0.03 2.4,0.03 39.5,0 78.94,-22.72 91.01,-73.02 0.1,-0.42 0.2,-0.83 0.3,-1.25 0.74,-3.27 1.38,-6.66 1.89,-10.16 0.3,-2.06 0.56,-4.33 0.77,-6.74 2.08,-23.36 0.42,-60.78 0.42,-60.78 l -23,-41.27" /><path
         id="path346"
         style="fill:#b2e5e3;fill-opacity:1;fill-rule:nonzero;stroke:none"
         d="m 2222.02,827.23 c 0,-54.011 -43.77,-97.789 -97.78,-97.789 -54,0 -97.78,43.778 -97.78,97.789 0,54 43.78,97.782 97.78,97.782 54.01,0 97.78,-43.782 97.78,-97.782" /><path
         id="path348"
         style="fill:#b2e5e3;fill-opacity:1;fill-rule:nonzero;stroke:none"
         d="m 1042.61,1767.65 c 0,-23.66 -19.18,-42.84 -42.837,-42.84 -23.66,0 -42.839,19.18 -42.839,42.84 0,23.66 19.179,42.84 42.839,42.84 23.657,0 42.837,-19.18 42.837,-42.84" /><path
         id="path350"
         style="fill:#b2e5e3;fill-opacity:1;fill-rule:nonzero;stroke:none"
         d="m 3766.26,2217.21 c 0,-23.66 -19.18,-42.84 -42.84,-42.84 -23.66,0 -42.84,19.18 -42.84,42.84 0,23.66 19.18,42.84 42.84,42.84 23.66,0 42.84,-19.18 42.84,-42.84" /><path
         id="path352"
         style="fill:#b2e5e3;fill-opacity:1;fill-rule:nonzero;stroke:none"
         d="m 1973.72,4201.46 c 0,-48.57 -39.37,-87.93 -87.93,-87.93 -48.57,0 -87.93,39.36 -87.93,87.93 0,48.56 39.36,87.93 87.93,87.93 48.56,0 87.93,-39.37 87.93,-87.93" /><path
         id="path354"
         style="fill:#b2e5e3;fill-opacity:1;fill-rule:nonzero;stroke:none"
         d="m 1061.32,2520.98 c 0,-51.1 -41.42,-92.52 -92.515,-92.52 -51.094,0 -92.516,41.42 -92.516,92.52 0,51.1 41.422,92.52 92.516,92.52 51.095,0 92.515,-41.42 92.515,-92.52" /><path
         id="path356"
         style="fill:#b2e5e3;fill-opacity:1;fill-rule:nonzero;stroke:none"
         d="m 1322.27,2520.98 c 0,-51.1 -41.42,-92.52 -92.51,-92.52 -51.1,0 -92.52,41.42 -92.52,92.52 0,51.1 41.42,92.52 92.52,92.52 51.09,0 92.51,-41.42 92.51,-92.52" /><path
         id="path358"
         style="fill:#b2e5e3;fill-opacity:1;fill-rule:nonzero;stroke:none"
         d="m 1583.22,2520.98 c 0,-51.1 -41.42,-92.52 -92.52,-92.52 -51.1,0 -92.52,41.42 -92.52,92.52 0,51.1 41.42,92.52 92.52,92.52 51.1,0 92.52,-41.42 92.52,-92.52" /><path
         id="path360"
         style="fill:#b2e5e3;fill-opacity:1;fill-rule:nonzero;stroke:none"
         d="m 2162.74,3771.06 h -369.3 c -31.79,0 -57.57,-25.77 -57.57,-57.57 0,-31.8 25.78,-57.57 57.57,-57.57 h 369.3 c 31.8,0 57.58,25.77 57.58,57.57 0,31.8 -25.78,57.57 -57.58,57.57" /><path
         id="path362"
         style="fill:#b2e5e3;fill-opacity:1;fill-rule:nonzero;stroke:none"
         d="m 1666.4,3713.49 c 0,-31.8 -25.78,-57.57 -57.58,-57.57 -31.79,0 -57.57,25.77 -57.57,57.57 0,31.8 25.78,57.57 57.57,57.57 31.8,0 57.58,-25.77 57.58,-57.57" /><path
         id="path364"
         style="fill:#b2e5e3;fill-opacity:1;fill-rule:nonzero;stroke:none"
         d="m 2777.09,3214.52 h 271.86 c 23.41,0 42.38,18.97 42.38,42.38 0,23.4 -18.97,42.38 -42.38,42.38 h -271.86 c -23.4,0 -42.37,-18.98 -42.37,-42.38 0,-23.41 18.97,-42.38 42.37,-42.38" /><path
         id="path366"
         style="fill:#b2e5e3;fill-opacity:1;fill-rule:nonzero;stroke:none"
         d="m 3142.47,3256.9 c 0,23.4 18.98,42.38 42.38,42.38 23.41,0 42.39,-18.98 42.39,-42.38 0,-23.41 -18.98,-42.38 -42.39,-42.38 -23.4,0 -42.38,18.97 -42.38,42.38" /><path
         id="path368"
         style="fill:#b2e5e3;fill-opacity:1;fill-rule:nonzero;stroke:none"
         d="m 2570.68,759.691 h 271.85 c 23.41,0 42.39,18.969 42.39,42.379 0,23.41 -18.98,42.379 -42.39,42.379 h -271.85 c -23.41,0 -42.38,-18.969 -42.38,-42.379 0,-23.41 18.97,-42.379 42.38,-42.379" /><path
         id="path370"
         style="fill:#b2e5e3;fill-opacity:1;fill-rule:nonzero;stroke:none"
         d="m 2936.05,802.07 c 0,23.41 18.98,42.379 42.38,42.379 23.41,0 42.39,-18.969 42.39,-42.379 0,-23.41 -18.98,-42.379 -42.39,-42.379 -23.4,0 -42.38,18.969 -42.38,42.379" /><path
         id="path372"
         style="fill:#b2e5e3;fill-opacity:1;fill-rule:nonzero;stroke:none"
         d="m 3834.58,1955.78 h 287.48 c 37.73,0 68.32,30.59 68.32,68.32 0,37.74 -30.59,68.32 -68.32,68.32 h -287.48 c -37.73,0 -68.32,-30.58 -68.32,-68.32 0,-37.73 30.59,-68.32 68.32,-68.32" /><path
         id="path374"
         style="fill:#b2e5e3;fill-opacity:1;fill-rule:nonzero;stroke:none"
         d="m 4272.81,2024.1 c 0,37.74 30.58,68.32 68.31,68.32 37.73,0 68.32,-30.58 68.32,-68.32 0,-37.73 -30.59,-68.32 -68.32,-68.32 -37.73,0 -68.31,30.59 -68.31,68.32" /><path
         id="path376"
         style="fill:#b2e5e3;fill-opacity:1;fill-rule:nonzero;stroke:none"
         d="m 3554.41,3504.41 -31.22,-31.21 c -21.11,-21.12 -55.34,-21.12 -76.45,0 l -31.21,31.21 c -17.57,17.56 -46.41,19.34 -64.49,2.32 -18.71,-17.62 -19.04,-47.08 -1,-65.11 l 32.56,-32.56 c 21.11,-21.12 21.11,-55.34 0,-76.46 l -31.21,-31.21 c -17.56,-17.56 -19.34,-46.4 -2.32,-64.48 17.61,-18.71 47.07,-19.04 65.11,-1 l 32.56,32.55 c 21.11,21.12 55.34,21.12 76.45,0 l 31.22,-31.21 c 17.56,-17.56 46.4,-19.34 64.48,-2.31 18.71,17.61 19.04,47.07 1,65.1 l -32.56,32.56 c -21.11,21.12 -21.11,55.34 0,76.46 l 32.56,32.56 c 18.04,18.04 17.71,47.49 -1,65.11 -18.08,17.02 -46.92,15.24 -64.48,-2.32" /><path
         id="path378"
         style="fill:#b2e5e3;fill-opacity:1;fill-rule:nonzero;stroke:none"
         d="m 1081.58,2082.68 h -25.15 c -17.02,0 -30.81,13.79 -30.81,30.81 v 25.15 c 0,14.15 -10.91,26.5 -25.05,26.92 -14.636,0.44 -26.64,-11.29 -26.64,-25.83 v -26.24 c 0,-17.02 -13.793,-30.81 -30.809,-30.81 h -25.152 c -14.153,0 -26.492,-10.9 -26.918,-25.05 C 890.609,2043 902.344,2031 916.887,2031 h 26.234 c 17.016,0 30.809,-13.8 30.809,-30.81 v -25.16 c 0,-14.15 10.906,-26.49 25.05,-26.91 14.63,-0.44 26.64,11.28 26.64,25.83 v 26.24 c 0,17.01 13.79,30.81 30.81,30.81 h 26.23 c 14.54,0 26.28,12 25.84,26.63 -0.43,14.15 -12.77,25.05 -26.92,25.05" /><path
         id="path380"
         style="fill:#8ccec3;fill-opacity:1;fill-rule:nonzero;stroke:none"
         d="m 1771.2,211.238 c 0,-4.386 0.68,-8.117 2.05,-11.207 1.36,-3.101 3.23,-5.422 5.61,-6.972 2.37,-1.579 4.96,-2.36 7.77,-2.36 2.85,0 5.45,0.75 7.81,2.231 2.35,1.48 4.23,3.761 5.64,6.832 1.4,3.058 2.1,6.898 2.1,11.476 0,4.321 -0.7,8.032 -2.1,11.141 -1.41,3.113 -3.3,5.48 -5.7,7.121 -2.4,1.641 -5.02,2.461 -7.87,2.461 -2.96,0 -5.61,-0.852 -7.95,-2.52 -2.33,-1.679 -4.15,-4.089 -5.43,-7.242 -1.29,-3.148 -1.93,-6.801 -1.93,-10.961 z m 31.88,-23.797 v 1.598 c -2.18,-2.488 -4.33,-4.519 -6.44,-6.07 -2.12,-1.567 -4.42,-2.758 -6.89,-3.571 -2.47,-0.828 -5.17,-1.218 -8.1,-1.218 -3.89,0 -7.48,0.808 -10.78,2.461 -3.3,1.648 -6.16,3.988 -8.58,7.039 -2.41,3.039 -4.24,6.621 -5.49,10.742 -1.24,4.117 -1.87,8.57 -1.87,13.359 0,10.117 2.48,18.028 7.42,23.688 4.95,5.652 11.46,8.492 19.53,8.492 4.67,0 8.61,-0.82 11.82,-2.41 3.2,-1.602 6.33,-4.071 9.38,-7.391 v 23.93 c 0,3.32 0.66,5.832 1.99,7.531 1.32,1.699 3.21,2.551 5.66,2.551 2.46,0 4.34,-0.781 5.67,-2.34 1.33,-1.57 1.99,-3.871 1.99,-6.91 v -71.481 c 0,-3.082 -0.71,-5.402 -2.14,-6.941 -1.42,-1.539 -3.26,-2.32 -5.52,-2.32 -2.21,0 -4.05,0.8 -5.49,2.402 -1.44,1.609 -2.16,3.887 -2.16,6.859" /><path
         id="path382"
         style="fill:#8ccec3;fill-opacity:1;fill-rule:nonzero;stroke:none"
         d="m 1842.84,216.352 h 29.39 c -0.39,5.527 -1.9,9.687 -4.49,12.437 -2.59,2.75 -6,4.121 -10.24,4.121 -4.03,0 -7.35,-1.39 -9.94,-4.18 -2.59,-2.789 -4.16,-6.921 -4.72,-12.378 z m 31.7,-9.211 h -31.7 c 0.04,-3.672 0.78,-6.922 2.23,-9.731 1.44,-2.808 3.36,-4.93 5.76,-6.351 2.39,-1.43 5.03,-2.129 7.92,-2.129 1.94,0 3.71,0.218 5.31,0.672 1.61,0.468 3.16,1.168 4.67,2.148 1.5,0.961 2.88,2 4.15,3.109 1.26,1.121 2.9,2.621 4.92,4.512 0.83,0.719 2.02,1.078 3.57,1.078 1.66,0 3.01,-0.469 4.03,-1.379 1.03,-0.922 1.55,-2.191 1.55,-3.859 0,-1.461 -0.58,-3.16 -1.72,-5.121 -1.16,-1.969 -2.89,-3.852 -5.2,-5.649 -2.32,-1.789 -5.22,-3.293 -8.73,-4.48 -3.5,-1.191 -7.53,-1.781 -12.08,-1.781 -10.4,0 -18.5,2.968 -24.27,8.91 -5.78,5.93 -8.67,13.98 -8.67,24.148 0,4.801 0.71,9.242 2.14,13.332 1.42,4.102 3.5,7.61 6.23,10.539 2.73,2.93 6.09,5.172 10.09,6.743 4,1.558 8.43,2.339 13.3,2.339 6.33,0 11.76,-1.332 16.29,-4 4.53,-2.679 7.93,-6.132 10.18,-10.359 2.25,-4.23 3.39,-8.562 3.39,-12.941 0,-4.09 -1.17,-6.711 -3.5,-7.93 -2.33,-1.211 -5.63,-1.82 -9.86,-1.82" /><path
         id="path384"
         style="fill:#8ccec3;fill-opacity:1;fill-rule:nonzero;stroke:none"
         d="m 1948.38,199.371 c 0,-4.473 -1.09,-8.301 -3.27,-11.48 -2.17,-3.192 -5.38,-5.602 -9.64,-7.25 -4.25,-1.653 -9.43,-2.461 -15.52,-2.461 -5.82,0 -10.8,0.89 -14.96,2.679 -4.16,1.77 -7.23,4 -9.2,6.672 -1.98,2.68 -2.97,5.348 -2.97,8.051 0,1.777 0.63,3.297 1.9,4.57 1.27,1.258 2.87,1.887 4.81,1.887 1.7,0 3,-0.41 3.91,-1.238 0.92,-0.84 1.79,-2.012 2.61,-3.512 1.66,-2.898 3.66,-5.027 5.98,-6.469 2.31,-1.422 5.46,-2.14 9.46,-2.14 3.25,0 5.91,0.73 7.99,2.172 2.07,1.449 3.11,3.109 3.11,4.957 0,2.851 -1.08,4.921 -3.23,6.23 -2.16,1.313 -5.71,2.563 -10.66,3.75 -5.58,1.383 -10.12,2.832 -13.62,4.371 -3.51,1.512 -6.31,3.52 -8.41,6.012 -2.09,2.488 -3.14,5.57 -3.14,9.199 0,3.238 0.97,6.32 2.91,9.211 1.94,2.879 4.8,5.188 8.58,6.898 3.77,1.731 8.33,2.59 13.68,2.59 4.2,0 7.97,-0.429 11.3,-1.308 3.35,-0.864 6.15,-2.043 8.38,-3.5 2.24,-1.461 3.93,-3.082 5.1,-4.864 1.17,-1.777 1.75,-3.519 1.75,-5.226 0,-1.863 -0.62,-3.383 -1.87,-4.57 -1.24,-1.18 -3.01,-1.793 -5.31,-1.793 -1.66,0 -3.07,0.48 -4.24,1.441 -1.17,0.949 -2.51,2.371 -4.01,4.27 -1.23,1.582 -2.66,2.851 -4.33,3.8 -1.66,0.95 -3.92,1.418 -6.77,1.418 -2.93,0 -5.36,-0.617 -7.3,-1.867 -1.94,-1.25 -2.91,-2.789 -2.91,-4.652 0,-1.707 0.71,-3.098 2.14,-4.188 1.42,-1.101 3.34,-1.992 5.76,-2.711 2.41,-0.699 5.73,-1.57 9.97,-2.601 5.02,-1.239 9.13,-2.699 12.32,-4.387 3.18,-1.703 5.59,-3.711 7.24,-6.043 1.64,-2.309 2.46,-4.949 2.46,-7.918" /><path
         id="path386"
         style="fill:#8ccec3;fill-opacity:1;fill-rule:nonzero;stroke:none"
         d="m 1972.95,234.871 v -46.832 c 0,-3.25 -0.77,-5.707 -2.32,-7.367 -1.54,-1.66 -3.5,-2.492 -5.87,-2.492 -2.38,0 -4.31,0.851 -5.79,2.55 -1.48,1.7 -2.23,4.141 -2.23,7.309 v 46.359 c 0,3.204 0.75,5.622 2.23,7.243 1.48,1.621 3.41,2.429 5.79,2.429 2.37,0 4.33,-0.808 5.87,-2.429 1.55,-1.621 2.32,-3.891 2.32,-6.77 z m -8.01,16.738 c -2.26,0 -4.19,0.692 -5.79,2.082 -1.6,1.379 -2.41,3.34 -2.41,5.879 0,2.301 0.83,4.18 2.47,5.66 1.64,1.5 3.55,2.231 5.73,2.231 2.1,0 3.95,-0.66 5.57,-2.02 1.63,-1.351 2.44,-3.3 2.44,-5.871 0,-2.5 -0.79,-4.449 -2.38,-5.851 -1.58,-1.41 -3.46,-2.11 -5.63,-2.11" /><path
         id="path388"
         style="fill:#8ccec3;fill-opacity:1;fill-rule:nonzero;stroke:none"
         d="m 1996.99,211.66 c 0,-6.57 1.43,-11.531 4.3,-14.898 2.87,-3.371 6.58,-5.051 11.13,-5.051 2.69,0 5.23,0.73 7.62,2.168 2.4,1.441 4.35,3.633 5.86,6.531 1.5,2.91 2.25,6.442 2.25,10.602 0,6.597 -1.45,11.75 -4.36,15.429 -2.91,3.68 -6.74,5.52 -11.49,5.52 -4.63,0 -8.34,-1.762 -11.13,-5.289 -2.79,-3.524 -4.18,-8.531 -4.18,-15.012 z m 46.96,20.539 v -47.07 c 0,-5.379 -0.59,-10.02 -1.73,-13.899 -1.14,-3.871 -2.99,-7.082 -5.52,-9.609 -2.53,-2.531 -5.85,-4.41 -9.94,-5.629 -4.1,-1.23 -9.19,-1.851 -15.29,-1.851 -5.58,0 -10.57,0.781 -14.96,2.339 -4.39,1.579 -7.77,3.59 -10.15,6.059 -2.37,2.473 -3.57,5.02 -3.57,7.633 0,1.976 0.68,3.59 2.03,4.828 1.34,1.25 2.97,1.871 4.86,1.871 2.38,0 4.46,-1.039 6.24,-3.141 0.86,-1.058 1.77,-2.16 2.69,-3.238 0.94,-1.101 1.97,-2.023 3.09,-2.793 1.13,-0.769 2.49,-1.34 4.07,-1.719 1.58,-0.359 3.4,-0.558 5.46,-0.558 4.19,0 7.45,0.578 9.77,1.75 2.32,1.168 3.94,2.797 4.87,4.898 0.93,2.09 1.47,4.34 1.63,6.739 0.16,2.39 0.27,6.242 0.35,11.55 -2.49,-3.488 -5.36,-6.148 -8.64,-7.968 -3.26,-1.809 -7.15,-2.719 -11.66,-2.719 -5.42,0 -10.16,1.379 -14.22,4.148 -4.05,2.77 -7.17,6.649 -9.34,11.641 -2.18,4.988 -3.26,10.738 -3.26,17.258 0,4.871 0.65,9.273 1.98,13.191 1.33,3.922 3.22,7.219 5.67,9.91 2.45,2.7 5.28,4.719 8.49,6.078 3.2,1.372 6.72,2.063 10.56,2.063 4.59,0 8.57,-0.891 11.94,-2.641 3.35,-1.769 6.49,-4.531 9.38,-8.289 v 2.199 c 0,2.809 0.68,4.981 2.07,6.532 1.39,1.539 3.17,2.308 5.35,2.308 3.12,0 5.2,-1.019 6.23,-3.05 1.03,-2.051 1.55,-4.981 1.55,-8.821" /><path
         id="path390"
         style="fill:#8ccec3;fill-opacity:1;fill-rule:nonzero;stroke:none"
         d="m 2069.7,235.109 v -1.961 c 2.84,3.762 5.96,6.524 9.35,8.293 3.38,1.75 7.27,2.629 11.66,2.629 4.28,0 8.09,-0.929 11.46,-2.789 3.36,-1.871 5.88,-4.492 7.54,-7.883 1.07,-1.988 1.76,-4.128 2.07,-6.418 0.32,-2.3 0.49,-5.218 0.49,-8.789 v -30.152 c 0,-3.25 -0.75,-5.707 -2.24,-7.367 -1.48,-1.66 -3.41,-2.492 -5.78,-2.492 -2.42,0 -4.38,0.851 -5.88,2.55 -1.5,1.7 -2.25,4.141 -2.25,7.309 v 27.012 c 0,5.34 -0.75,9.418 -2.23,12.25 -1.49,2.828 -4.44,4.25 -8.88,4.25 -2.89,0 -5.52,-0.86 -7.89,-2.59 -2.37,-1.711 -4.12,-4.09 -5.23,-7.09 -0.79,-2.422 -1.18,-6.922 -1.18,-13.531 v -20.301 c 0,-3.277 -0.77,-5.75 -2.29,-7.398 -1.52,-1.653 -3.49,-2.461 -5.9,-2.461 -2.34,0 -4.26,0.851 -5.76,2.55 -1.51,1.7 -2.26,4.141 -2.26,7.309 v 46.832 c 0,3.09 0.67,5.391 2.02,6.93 1.35,1.508 3.19,2.269 5.52,2.269 1.43,0 2.71,-0.332 3.86,-1 1.15,-0.691 2.07,-1.691 2.76,-3.031 0.7,-1.348 1.04,-3 1.04,-4.93" /><path
         id="path392"
         style="fill:#8ccec3;fill-opacity:1;fill-rule:nonzero;stroke:none"
         d="m 2136.59,216.352 h 29.39 c -0.4,5.527 -1.89,9.687 -4.49,12.437 -2.59,2.75 -6,4.121 -10.23,4.121 -4.04,0 -7.36,-1.39 -9.95,-4.18 -2.59,-2.789 -4.16,-6.921 -4.72,-12.378 z m 31.7,-9.211 h -31.7 c 0.05,-3.672 0.78,-6.922 2.23,-9.731 1.44,-2.808 3.36,-4.93 5.76,-6.351 2.39,-1.43 5.03,-2.129 7.92,-2.129 1.94,0 3.71,0.218 5.32,0.672 1.59,0.468 3.15,1.168 4.66,2.148 1.5,0.961 2.88,2 4.16,3.109 1.26,1.121 2.9,2.621 4.92,4.512 0.83,0.719 2.01,1.078 3.56,1.078 1.66,0 3.01,-0.469 4.04,-1.379 1.03,-0.922 1.54,-2.191 1.54,-3.859 0,-1.461 -0.57,-3.16 -1.73,-5.121 -1.14,-1.969 -2.88,-3.852 -5.19,-5.649 -2.32,-1.789 -5.22,-3.293 -8.72,-4.48 -3.51,-1.191 -7.54,-1.781 -12.09,-1.781 -10.4,0 -18.49,2.968 -24.28,8.91 -5.77,5.93 -8.66,13.98 -8.66,24.148 0,4.801 0.71,9.242 2.14,13.332 1.42,4.102 3.5,7.61 6.23,10.539 2.73,2.93 6.1,5.172 10.09,6.743 4,1.558 8.43,2.339 13.3,2.339 6.33,0 11.75,-1.332 16.29,-4 4.53,-2.679 7.93,-6.132 10.19,-10.359 2.25,-4.23 3.38,-8.562 3.38,-12.941 0,-4.09 -1.17,-6.711 -3.5,-7.93 -2.33,-1.211 -5.62,-1.82 -9.86,-1.82" /><path
         id="path394"
         style="fill:#8ccec3;fill-opacity:1;fill-rule:nonzero;stroke:none"
         d="m 2202.48,211.238 c 0,-4.386 0.67,-8.117 2.04,-11.207 1.37,-3.101 3.24,-5.422 5.62,-6.972 2.37,-1.579 4.96,-2.36 7.77,-2.36 2.85,0 5.45,0.75 7.8,2.231 2.36,1.48 4.24,3.761 5.64,6.832 1.41,3.058 2.11,6.898 2.11,11.476 0,4.321 -0.7,8.032 -2.11,11.141 -1.4,3.113 -3.3,5.48 -5.7,7.121 -2.39,1.641 -5.01,2.461 -7.86,2.461 -2.97,0 -5.62,-0.852 -7.96,-2.52 -2.33,-1.679 -4.14,-4.089 -5.43,-7.242 -1.28,-3.148 -1.92,-6.801 -1.92,-10.961 z m 31.87,-23.797 v 1.598 c -2.18,-2.488 -4.32,-4.519 -6.44,-6.07 -2.11,-1.567 -4.41,-2.758 -6.88,-3.571 -2.47,-0.828 -5.18,-1.218 -8.1,-1.218 -3.89,0 -7.48,0.808 -10.78,2.461 -3.3,1.648 -6.16,3.988 -8.58,7.039 -2.41,3.039 -4.24,6.621 -5.49,10.742 -1.24,4.117 -1.87,8.57 -1.87,13.359 0,10.117 2.47,18.028 7.42,23.688 4.95,5.652 11.46,8.492 19.53,8.492 4.67,0 8.61,-0.82 11.82,-2.41 3.2,-1.602 6.33,-4.071 9.37,-7.391 v 23.93 c 0,3.32 0.66,5.832 1.99,7.531 1.33,1.699 3.22,2.551 5.67,2.551 2.45,0 4.34,-0.781 5.67,-2.34 1.32,-1.57 1.99,-3.871 1.99,-6.91 v -71.481 c 0,-3.082 -0.71,-5.402 -2.14,-6.941 -1.42,-1.539 -3.26,-2.32 -5.52,-2.32 -2.21,0 -4.04,0.8 -5.49,2.402 -1.45,1.609 -2.17,3.887 -2.17,6.859" /><path
         id="path396"
         style="fill:#8ccec3;fill-opacity:1;fill-rule:nonzero;stroke:none"
         d="m 2301.36,210.77 c 0,-6.45 1.48,-11.399 4.43,-14.86 2.94,-3.469 6.81,-5.211 11.6,-5.211 4.07,0 7.59,1.77 10.53,5.321 2.95,3.539 4.42,8.621 4.42,15.218 0,4.282 -0.6,7.961 -1.83,11.051 -1.23,3.082 -2.97,5.473 -5.22,7.152 -2.26,1.668 -4.89,2.52 -7.9,2.52 -3.09,0 -5.84,-0.852 -8.25,-2.52 -2.42,-1.679 -4.32,-4.121 -5.7,-7.3 -1.38,-3.18 -2.08,-6.969 -2.08,-11.371 z m -0.77,48.152 V 234.16 c 3.04,3.16 6.15,5.602 9.32,7.281 3.17,1.68 7.09,2.52 11.76,2.52 5.38,0 10.09,-1.281 14.16,-3.82 4.04,-2.571 7.19,-6.27 9.43,-11.121 2.24,-4.84 3.36,-10.59 3.36,-17.239 0,-4.91 -0.63,-9.41 -1.87,-13.511 -1.25,-4.09 -3.06,-7.649 -5.44,-10.641 -2.37,-3.008 -5.25,-5.34 -8.63,-6.988 -3.39,-1.653 -7.12,-2.461 -11.19,-2.461 -2.5,0 -4.84,0.3 -7.04,0.89 -2.2,0.602 -4.07,1.371 -5.61,2.352 -1.54,0.957 -2.85,1.957 -3.94,2.988 -1.1,1.031 -2.53,2.582 -4.31,4.629 v -1.598 c 0,-3.05 -0.73,-5.351 -2.2,-6.921 -1.46,-1.559 -3.32,-2.34 -5.58,-2.34 -2.29,0 -4.12,0.781 -5.49,2.34 -1.36,1.57 -2.04,3.871 -2.04,6.921 v 70.758 c 0,3.281 0.66,5.77 1.98,7.449 1.33,1.684 3.18,2.524 5.55,2.524 2.5,0 4.42,-0.801 5.76,-2.402 1.35,-1.61 2.02,-3.891 2.02,-6.848" /><path
         id="path398"
         style="fill:#8ccec3;fill-opacity:1;fill-rule:nonzero;stroke:none"
         d="m 2369.62,176.16 1.49,3.629 -19.95,50.223 c -1.22,2.879 -1.84,4.976 -1.84,6.289 0,1.39 0.36,2.66 1.07,3.851 0.71,1.188 1.69,2.137 2.94,2.848 1.25,0.719 2.54,1.07 3.89,1.07 2.33,0 4.09,-0.738 5.28,-2.218 1.2,-1.493 2.24,-3.61 3.15,-6.383 l 13.71,-39.887 13,37.098 c 1.03,2.992 1.96,5.359 2.79,7.07 0.83,1.699 1.71,2.84 2.64,3.422 0.93,0.609 2.25,0.898 3.95,0.898 1.23,0 2.41,-0.32 3.53,-0.968 1.13,-0.661 2,-1.543 2.61,-2.653 0.62,-1.097 0.93,-2.269 0.93,-3.5 -0.17,-0.75 -0.42,-1.808 -0.78,-3.211 -0.36,-1.379 -0.79,-2.789 -1.3,-4.207 l -21.13,-55.332 c -1.83,-4.859 -3.61,-8.668 -5.35,-11.449 -1.74,-2.77 -4.04,-4.91 -6.92,-6.379 -2.87,-1.492 -6.73,-2.23 -11.6,-2.23 -4.75,0 -8.31,0.507 -10.68,1.531 -2.38,1.047 -3.56,2.918 -3.56,5.66 0,1.848 0.55,3.289 1.69,4.289 1.12,1.008 2.8,1.527 5.01,1.527 l 2.55,-0.367 c 1.03,-0.23 1.92,-0.351 2.67,-0.351 1.86,0 3.33,0.269 4.4,0.84 1.06,0.539 2.02,1.5 2.88,2.882 0.84,1.336 1.83,3.368 2.93,6.008" /><path
         id="path400"
         style="fill:#8ccec3;fill-opacity:1;fill-rule:nonzero;stroke:none"
         d="m 2604.39,242.68 h 3.87 v 4.859 c 0,5.09 0.62,9.102 1.92,12.109 1.27,2.993 3.47,5.153 6.54,6.524 3.06,1.359 7.26,2.039 12.6,2.039 9.5,0 14.21,-2.289 14.21,-6.961 0,-1.48 -0.5,-2.77 -1.51,-3.852 -0.96,-1.046 -2.14,-1.589 -3.48,-1.589 -0.62,0 -1.74,0.113 -3.3,0.371 -1.48,0.211 -2.82,0.34 -3.89,0.34 -2.93,0 -4.79,-0.879 -5.66,-2.579 -0.79,-1.73 -1.22,-4.179 -1.22,-7.41 v -3.851 h 3.95 c 6.2,0 9.26,-1.86 9.26,-5.61 0,-2.621 -0.79,-4.308 -2.45,-5.019 -1.64,-0.719 -3.9,-1.071 -6.81,-1.071 h -3.95 v -42.941 c 0,-3.199 -0.75,-5.641 -2.31,-7.309 -1.51,-1.699 -3.46,-2.539 -5.89,-2.539 -2.3,0 -4.19,0.84 -5.74,2.539 -1.52,1.668 -2.27,4.11 -2.27,7.309 v 42.941 h -4.47 c -2.42,0 -4.26,0.52 -5.58,1.641 -1.31,1.059 -1.96,2.488 -1.96,4.231 0,3.898 2.71,5.828 8.14,5.828" /><path
         id="path402"
         style="fill:#8ccec3;fill-opacity:1;fill-rule:nonzero;stroke:none"
         d="m 2657.45,201.582 v -13.543 c 0,-3.269 -0.83,-5.75 -2.34,-7.379 -1.54,-1.672 -3.49,-2.469 -5.86,-2.469 -2.38,0 -4.29,0.821 -5.79,2.5 -1.47,1.649 -2.25,4.098 -2.25,7.348 v 45.133 c 0,7.289 2.62,10.93 7.88,10.93 2.71,0 4.65,-0.84 5.84,-2.551 1.18,-1.711 1.84,-4.211 1.98,-7.551 1.92,3.34 3.9,5.84 5.93,7.551 2.07,1.711 4.76,2.551 8.18,2.551 3.43,0 6.7,-0.84 9.91,-2.551 3.22,-1.711 4.82,-3.969 4.82,-6.77 0,-1.972 -0.69,-3.633 -2.04,-4.89 -1.38,-1.309 -2.84,-1.95 -4.41,-1.95 -0.63,0 -2.07,0.391 -4.33,1.118 -2.28,0.722 -4.31,1.093 -6.02,1.093 -2.37,0 -4.33,-0.652 -5.82,-1.871 -1.51,-1.281 -2.7,-3.101 -3.53,-5.543 -0.81,-2.468 -1.37,-5.406 -1.7,-8.777 -0.31,-3.379 -0.45,-7.512 -0.45,-12.379" /><path
         id="path404"
         style="fill:#8ccec3;fill-opacity:1;fill-rule:nonzero;stroke:none"
         d="m 2700.24,216.379 h 29.38 c -0.38,5.519 -1.86,9.68 -4.45,12.41 -2.62,2.762 -6,4.133 -10.26,4.133 -4.04,0 -7.36,-1.383 -9.95,-4.184 -2.59,-2.789 -4.17,-6.898 -4.72,-12.359 m 31.72,-9.219 h -31.72 c 0.06,-3.668 0.78,-6.941 2.22,-9.738 1.47,-2.793 3.37,-4.91 5.78,-6.363 2.4,-1.411 5.02,-2.11 7.93,-2.11 1.94,0 3.7,0.199 5.31,0.692 1.59,0.429 3.15,1.16 4.65,2.129 1.52,0.949 2.88,1.992 4.15,3.121 1.27,1.101 2.92,2.597 4.94,4.488 0.84,0.723 2.03,1.09 3.55,1.09 1.68,0 3.01,-0.457 4.06,-1.387 1.04,-0.922 1.53,-2.191 1.53,-3.863 0,-1.457 -0.56,-3.168 -1.68,-5.11 -1.17,-1.988 -2.89,-3.847 -5.22,-5.668 -2.34,-1.769 -5.25,-3.293 -8.74,-4.461 -3.5,-1.191 -7.53,-1.789 -12.07,-1.789 -10.44,0 -18.52,2.957 -24.29,8.891 -5.78,5.949 -8.7,14.008 -8.7,24.18 0,4.777 0.73,9.238 2.17,13.34 1.41,4.109 3.49,7.597 6.25,10.55 2.72,2.938 6.06,5.168 10.07,6.727 3.99,1.562 8.42,2.34 13.3,2.34 6.32,0 11.76,-1.34 16.29,-4.028 4.52,-2.64 7.96,-6.109 10.18,-10.351 2.26,-4.238 3.39,-8.539 3.39,-12.961 0,-4.047 -1.17,-6.68 -3.51,-7.91 -2.33,-1.207 -5.61,-1.809 -9.84,-1.809" /><path
         id="path406"
         style="fill:#8ccec3;fill-opacity:1;fill-rule:nonzero;stroke:none"
         d="m 2767.67,216.379 h 29.38 c -0.39,5.519 -1.9,9.68 -4.47,12.41 -2.63,2.762 -6.01,4.133 -10.26,4.133 -4.04,0 -7.35,-1.383 -9.96,-4.184 -2.58,-2.789 -4.17,-6.898 -4.69,-12.359 m 31.71,-9.219 h -31.71 c 0.04,-3.668 0.78,-6.941 2.21,-9.738 1.45,-2.793 3.37,-4.91 5.76,-6.363 2.39,-1.411 5.03,-2.11 7.95,-2.11 1.92,0 3.7,0.199 5.28,0.692 1.61,0.429 3.16,1.16 4.68,2.129 1.52,0.949 2.88,1.992 4.16,3.121 1.24,1.101 2.9,2.597 4.92,4.488 0.84,0.723 2.04,1.09 3.55,1.09 1.68,0 3.02,-0.457 4.07,-1.387 1.03,-0.922 1.5,-2.191 1.5,-3.863 0,-1.457 -0.54,-3.168 -1.71,-5.11 -1.1,-1.988 -2.84,-3.847 -5.19,-5.668 -2.31,-1.769 -5.25,-3.293 -8.72,-4.461 -3.48,-1.191 -7.55,-1.789 -12.09,-1.789 -10.42,0 -18.49,2.957 -24.29,8.891 -5.78,5.949 -8.68,14.008 -8.68,24.18 0,4.777 0.72,9.238 2.17,13.34 1.42,4.109 3.49,7.597 6.23,10.55 2.72,2.938 6.08,5.168 10.09,6.727 3.98,1.562 8.44,2.34 13.3,2.34 6.31,0 11.74,-1.34 16.33,-4.028 4.5,-2.64 7.91,-6.109 10.14,-10.351 2.24,-4.238 3.4,-8.539 3.4,-12.961 0,-4.047 -1.2,-6.68 -3.51,-7.91 -2.34,-1.207 -5.62,-1.809 -9.84,-1.809" /><path
         id="path408"
         style="fill:#8ccec3;fill-opacity:1;fill-rule:nonzero;stroke:none"
         d="m 2866.65,211.441 c 0,4.278 -0.66,7.95 -1.97,11.02 -1.3,3.078 -3.11,5.418 -5.41,7.039 -2.29,1.648 -4.89,2.48 -7.7,2.48 -4.47,0 -8.24,-1.769 -11.31,-5.269 -3.07,-3.539 -4.62,-8.719 -4.62,-15.582 0,-6.41 1.53,-11.457 4.6,-15.039 3.05,-3.578 6.79,-5.371 11.33,-5.371 2.68,0 5.19,0.793 7.48,2.332 2.32,1.578 4.16,3.918 5.53,7.051 1.37,3.128 2.07,6.91 2.07,11.339 m -31.78,23.547 v -1.937 c 3.05,3.75 6.22,6.508 9.53,8.269 3.24,1.782 6.99,2.668 11.14,2.668 4.97,0 9.6,-1.297 13.8,-3.847 4.19,-2.59 7.49,-6.352 9.93,-11.301 2.43,-4.969 3.66,-10.809 3.66,-17.578 0,-4.981 -0.7,-9.571 -2.1,-13.762 -1.4,-4.18 -3.36,-7.668 -5.81,-10.5 -2.46,-2.809 -5.34,-5.008 -8.68,-6.531 -3.39,-1.508 -6.95,-2.278 -10.8,-2.278 -4.61,0 -8.52,0.93 -11.66,2.801 -3.14,1.817 -6.14,4.59 -9.01,8.156 V 164.82 c 0,-7.101 -2.59,-10.691 -7.77,-10.691 -3.07,0 -5.05,0.922 -6.07,2.75 -0.95,1.871 -1.46,4.531 -1.46,8.07 v 69.961 c 0,3.09 0.66,5.371 2,6.922 1.34,1.488 3.2,2.27 5.53,2.27 2.3,0 4.16,-0.782 5.6,-2.332 1.47,-1.579 2.17,-3.821 2.17,-6.782" /><path
         id="path410"
         style="fill:#8ccec3;fill-opacity:1;fill-rule:nonzero;stroke:none"
         d="m 2907.28,234.91 v -46.89 c 0,-3.231 -0.78,-5.68 -2.32,-7.329 -1.56,-1.679 -3.5,-2.5 -5.88,-2.5 -2.38,0 -4.28,0.84 -5.8,2.539 -1.46,1.731 -2.22,4.161 -2.22,7.29 v 46.421 c 0,3.188 0.76,5.598 2.22,7.219 1.52,1.649 3.42,2.442 5.8,2.442 2.38,0 4.32,-0.793 5.88,-2.442 1.54,-1.621 2.32,-3.89 2.32,-6.75 m -8.03,16.738 c -2.27,0 -4.18,0.711 -5.77,2.09 -1.62,1.403 -2.42,3.332 -2.42,5.864 0,2.289 0.82,4.179 2.48,5.679 1.63,1.469 3.54,2.231 5.71,2.231 2.12,0 3.97,-0.66 5.58,-2 1.63,-1.371 2.45,-3.34 2.45,-5.91 0,-2.5 -0.8,-4.442 -2.37,-5.852 -1.58,-1.391 -3.46,-2.102 -5.66,-2.102" /><path
         id="path412"
         style="fill:#8ccec3;fill-opacity:1;fill-rule:nonzero;stroke:none"
         d="m 2959.52,185.602 -14.28,23.527 -8.79,-8.297 v -12.91 c 0,-3.133 -0.83,-5.524 -2.49,-7.192 -1.6,-1.699 -3.54,-2.539 -5.66,-2.539 -2.49,0 -4.47,0.821 -5.88,2.5 -1.41,1.649 -2.14,4.098 -2.14,7.348 v 69.141 c 0,3.582 0.71,6.32 2.06,8.211 1.4,1.898 3.41,2.82 5.96,2.82 2.5,0 4.46,-0.852 5.93,-2.57 1.47,-1.68 2.22,-4.2 2.22,-7.512 v -39.328 l 18.22,19.14 c 2.26,2.348 3.95,4 5.17,4.86 1.19,0.871 2.62,1.301 4.31,1.301 2.04,0 3.71,-0.641 5.09,-1.922 1.32,-1.289 2.01,-2.91 2.01,-4.84 0,-2.371 -2.21,-5.551 -6.6,-9.508 l -8.6,-7.891 16.62,-26.14 c 1.21,-1.949 2.12,-3.403 2.65,-4.422 0.52,-0.988 0.81,-1.988 0.81,-2.879 0,-2.578 -0.71,-4.59 -2.13,-6.102 -1.41,-1.468 -3.27,-2.207 -5.54,-2.207 -1.98,0 -3.52,0.508 -4.58,1.598 -1.06,1.082 -2.55,3.02 -4.36,5.813" /><path
         id="path414"
         style="fill:#8ccec3;fill-opacity:1;fill-rule:nonzero;stroke:none"
         d="m 2994.75,178.191 c -2.46,0 -4.55,0.789 -6.34,2.391 -1.78,1.547 -2.68,3.777 -2.68,6.648 0,2.411 0.86,4.489 2.56,6.219 1.72,1.75 3.8,2.61 6.3,2.61 2.49,0 4.6,-0.86 6.39,-2.567 1.75,-1.722 2.64,-3.832 2.64,-6.262 0,-2.832 -0.89,-5.05 -2.64,-6.621 -1.79,-1.629 -3.87,-2.418 -6.23,-2.418" /><path
         id="path416"
         style="fill:#8ccec3;fill-opacity:1;fill-rule:nonzero;stroke:none"
         d="m 3075.36,198.25 c 0,-2 -0.6,-4.168 -1.82,-6.449 -1.2,-2.321 -3.05,-4.5 -5.54,-6.571 -2.46,-2.082 -5.57,-3.769 -9.34,-5.019 -3.75,-1.262 -8,-1.922 -12.69,-1.922 -10.04,0 -17.86,2.941 -23.48,8.762 -5.6,5.847 -8.42,13.679 -8.42,23.5 0,6.668 1.28,12.539 3.87,17.648 2.55,5.09 6.28,9.051 11.14,11.84 4.87,2.793 10.72,4.18 17.46,4.18 4.21,0 8.05,-0.61 11.58,-1.84 3.5,-1.219 6.45,-2.82 8.9,-4.738 2.42,-1.969 4.29,-4.032 5.56,-6.2 1.3,-2.199 1.93,-4.261 1.93,-6.179 0,-1.922 -0.71,-3.571 -2.15,-4.922 -1.47,-1.34 -3.22,-2.02 -5.24,-2.02 -1.37,0 -2.49,0.352 -3.38,1.039 -0.9,0.7 -1.9,1.813 -2.99,3.379 -1.99,2.992 -4.04,5.274 -6.23,6.754 -2.14,1.52 -4.87,2.258 -8.21,2.258 -4.76,0 -8.64,-1.859 -11.58,-5.609 -2.92,-3.719 -4.4,-8.871 -4.4,-15.34 0,-3.051 0.39,-5.871 1.14,-8.422 0.74,-2.547 1.83,-4.719 3.26,-6.52 1.44,-1.8 3.15,-3.148 5.16,-4.089 2.03,-0.961 4.26,-1.411 6.65,-1.411 3.26,0 6.04,0.75 8.35,2.25 2.36,1.512 4.39,3.801 6.17,6.891 0.99,1.82 2.05,3.23 3.18,4.27 1.14,1.019 2.56,1.562 4.22,1.562 1.98,0 3.63,-0.773 4.91,-2.262 1.32,-1.511 1.99,-3.121 1.99,-4.82" /><path
         id="path418"
         style="fill:#8ccec3;fill-opacity:1;fill-rule:nonzero;stroke:none"
         d="m 3129.03,211.129 c 0,6.621 -1.47,11.762 -4.37,15.43 -2.89,3.722 -6.81,5.55 -11.71,5.55 -3.17,0 -5.97,-0.82 -8.39,-2.461 -2.42,-1.628 -4.26,-4.046 -5.56,-7.277 -1.3,-3.199 -1.97,-6.949 -1.97,-11.242 0,-4.238 0.64,-7.918 1.93,-11.078 1.3,-3.192 3.14,-5.61 5.54,-7.289 2.41,-1.672 5.22,-2.532 8.45,-2.532 4.9,0 8.82,1.86 11.71,5.579 2.9,3.691 4.37,8.82 4.37,15.32 m 16.27,0 c 0,-4.797 -0.76,-9.27 -2.22,-13.367 -1.55,-4.071 -3.7,-7.571 -6.56,-10.481 -2.85,-2.929 -6.27,-5.179 -10.2,-6.75 -4,-1.551 -8.44,-2.351 -13.37,-2.351 -4.91,0 -9.33,0.8 -13.26,2.402 -3.89,1.547 -7.31,3.828 -10.16,6.75 -2.88,2.977 -5.05,6.469 -6.57,10.477 -1.44,4.031 -2.19,8.472 -2.19,13.32 0,4.91 0.77,9.422 2.24,13.492 1.51,4.09 3.68,7.578 6.49,10.461 2.82,2.887 6.21,5.109 10.19,6.688 4.03,1.55 8.44,2.332 13.26,2.332 4.9,0 9.36,-0.782 13.37,-2.383 3.98,-1.567 7.39,-3.84 10.27,-6.75 2.86,-2.957 5.02,-6.43 6.5,-10.449 1.46,-4.059 2.21,-8.489 2.21,-13.391" /><path
         id="path420"
         style="fill:#8ccec3;fill-opacity:1;fill-rule:nonzero;stroke:none"
         d="M 3207.12,209.941 V 188.41 c 0,-3.422 -0.75,-5.949 -2.31,-7.68 -1.56,-1.699 -3.56,-2.55 -6.1,-2.55 -2.46,0 -4.47,0.851 -5.95,2.55 -1.54,1.731 -2.33,4.258 -2.33,7.68 v 25.809 c 0,4.09 -0.12,7.261 -0.39,9.531 -0.29,2.211 -1.05,4.09 -2.27,5.52 -1.22,1.472 -3.18,2.191 -5.81,2.191 -5.32,0 -8.8,-1.813 -10.48,-5.5 -1.68,-3.602 -2.54,-8.832 -2.54,-15.672 V 188.41 c 0,-3.371 -0.77,-5.922 -2.26,-7.648 -1.56,-1.711 -3.55,-2.582 -6.03,-2.582 -2.47,0 -4.48,0.871 -6.04,2.582 -1.58,1.726 -2.35,4.277 -2.35,7.648 v 46.371 c 0,3.051 0.69,5.371 2.09,6.938 1.44,1.601 3.29,2.383 5.56,2.383 2.23,0 4.07,-0.762 5.57,-2.223 1.48,-1.488 2.22,-3.539 2.22,-6.149 v -1.531 c 2.83,3.352 5.84,5.821 9.03,7.383 3.23,1.617 6.76,2.406 10.7,2.406 4.07,0 7.57,-0.816 10.49,-2.437 2.93,-1.629 5.33,-4.09 7.25,-7.352 2.75,3.301 5.68,5.77 8.81,7.383 3.13,1.598 6.58,2.406 10.39,2.406 4.41,0 8.26,-0.886 11.46,-2.617 3.19,-1.742 5.58,-4.25 7.17,-7.469 1.38,-2.953 2.07,-7.562 2.07,-13.851 V 188.41 c 0,-3.422 -0.76,-5.949 -2.3,-7.68 -1.53,-1.699 -3.59,-2.55 -6.12,-2.55 -2.47,0 -4.46,0.871 -6.03,2.582 -1.56,1.726 -2.35,4.277 -2.35,7.648 v 27.25 c 0,3.488 -0.14,6.27 -0.43,8.36 -0.3,2.109 -1.11,3.878 -2.4,5.3 -1.32,1.422 -3.31,2.141 -5.95,2.141 -2.14,0 -4.16,-0.66 -6.09,-1.922 -1.92,-1.238 -3.41,-2.98 -4.5,-5.078 -1.16,-2.731 -1.78,-7.582 -1.78,-14.52" /><path
         id="path422"
         style="fill:#8ccec3;fill-opacity:1;fill-rule:nonzero;stroke:none"
         d="m 2452.72,215.059 -0.01,0.113 0.01,-0.113" /><path
         id="path424"
         style="fill:#8ccec3;fill-opacity:1;fill-rule:nonzero;stroke:none"
         d="m 2453.54,209.871 h 0.01 c -0.31,1.488 -0.55,2.949 -0.74,4.399 0.19,-1.469 0.43,-2.93 0.73,-4.399" /><path
         id="path426"
         style="fill:#8ccec3;fill-opacity:1;fill-rule:nonzero;stroke:none"
         d="m 2458.9,194.832 -0.11,0.219 0.11,-0.219" /><path
         id="path428"
         style="fill:#8ccec3;fill-opacity:1;fill-rule:nonzero;stroke:none"
         d="m 2458.39,195.84 -0.41,0.84 0.41,-0.84" /><path
         id="path430"
         style="fill:#8ccec3;fill-opacity:1;fill-rule:nonzero;stroke:none"
         d="m 2455.04,204.082 c 0.8,-2.5 1.75,-4.922 2.86,-7.23 -1.13,2.359 -2.06,4.789 -2.83,7.23 h -0.03" /><path
         id="path432"
         style="fill:#8ccec3;fill-opacity:1;fill-rule:nonzero;stroke:none"
         d="m 2515.45,277.16 c 3.13,0 5.45,-0.25 8.09,-0.699 l 0.76,4.769 c 0,0 -7.32,2.262 -16.94,1.469 l -0.76,2.59 c 2.99,0.633 5.24,3.293 5.24,6.473 0,3.629 -2.97,6.578 -6.61,6.578 -3.64,0 -6.6,-2.949 -6.6,-6.578 0,-3.18 2.24,-5.84 5.23,-6.473 l 0.83,-2.891 c -10.21,-1.398 -18.34,-5.386 -18.34,-5.386 l 1.44,-4.403 c 6.18,2.051 11.54,3.301 16.4,3.832 4.76,0.5 8.34,0.719 11.26,0.719" /><path
         id="path434"
         style="fill:#8ccec3;fill-opacity:1;fill-rule:nonzero;stroke:none"
         d="m 2458.78,253.051 0.04,0.051 0.71,0.878 -1.96,1.418 -3.05,2.231 c -0.17,-0.25 -4.97,-4.649 -8.76,-12.809 l -0.56,0.75 c -1.14,1.239 -2.72,1.871 -4.74,1.84 h -0.09 c -1.25,0 -2.11,0.41 -2.67,0.922 0.56,0.699 0.89,1.598 0.89,2.578 0,2.301 -1.87,4.18 -4.18,4.18 -2.3,0 -4.18,-1.879 -4.18,-4.18 0,-2.32 1.88,-4.18 4.18,-4.18 l 1.04,0.129 c 1.03,-1.148 2.67,-2.129 5.05,-2.078 1.23,0.008 2.13,-0.32 2.74,-0.98 l 0.99,-2.68 -0.02,-0.031 c -2.72,-7.43 -1.93,-16.68 -1.93,-16.68 l 6.6,-0.262 c 0.13,3.372 0.62,9.262 2.32,13.942 3.29,9.058 7.41,14.719 7.58,14.961" /><path
         id="path436"
         style="fill:#8ccec3;fill-opacity:1;fill-rule:nonzero;stroke:none"
         d="m 2572.95,271.641 c -2.3,0 -4.18,-1.86 -4.18,-4.18 l 0.15,-1.031 c -1.15,-1.039 -2.15,-2.68 -2.11,-5.071 0.02,-1.23 -0.3,-2.117 -0.97,-2.73 l -1.85,-0.879 c -4.91,6.898 -10.97,11.102 -10.97,11.102 l -4.74,-5.082 c 3.58,-3.258 7.24,-7.34 10.8,-12.438 2.46,-3.531 4.99,-8.07 7.1,-12.602 l 6.4,3.051 c 0,0 -2.92,7.207 -7.03,13.688 l 2.06,1.203 c 1.26,1.129 1.87,2.726 1.83,4.738 -0.01,1.301 0.42,2.172 0.93,2.762 0.72,-0.551 1.61,-0.891 2.58,-0.891 2.32,0 4.18,1.871 4.18,4.18 0,2.32 -1.86,4.18 -4.18,4.18" /><path
         id="path438"
         style="fill:#8ccec3;fill-opacity:1;fill-rule:nonzero;stroke:none"
         d="m 2556.34,214.129 c -8.81,-4.297 -23.3,-9.969 -42.38,-12.629 -7.49,-1.031 -14.75,-1.418 -21.43,-1.418 -8.69,0 -16.37,0.648 -22.27,1.387 -6.72,0.851 -11.98,1.89 -15.19,2.613 0.77,-2.441 1.7,-4.871 2.83,-7.23 l 0.08,-0.172 0.41,-0.84 0.4,-0.789 0.11,-0.219 c 1.9,-3.562 4.17,-6.832 6.75,-9.672 9,-9.851 18.17,-11.398 18.26,-11.422 l 0.14,-0.008 0.14,-0.05 c 0.08,-0.039 8.21,-2.649 20.57,-2.649 12.16,0 24.09,2.449 35.46,7.289 8.42,4.309 16.39,10.852 20.34,16.68 3.05,4.52 5.26,9.34 6.56,14.34 0.7,2.66 1.24,6.922 0.92,11.402 -2.47,-1.66 -6.39,-4.031 -11.7,-6.613" /><path
         id="path440"
         style="fill:#8ccec3;fill-opacity:1;fill-rule:nonzero;stroke:none"
         d="m 2486.78,255.57 c 9.73,0 17.61,-7.89 17.61,-17.621 0,-9.719 -7.88,-17.59 -17.61,-17.59 -9.71,0 -17.6,7.871 -17.6,17.59 0,9.731 7.89,17.621 17.6,17.621 z m 51.51,-0.441 c 6.01,0 10.9,-4.891 10.9,-10.887 0,-6.023 -4.89,-10.91 -10.9,-10.91 -6.01,0 -10.89,4.887 -10.89,10.91 0,5.996 4.88,10.887 10.89,10.887 z m -76.68,-4.168 c -0.26,-0.371 -4.08,-5.781 -7.1,-14.09 -2.26,-6.211 -2.16,-15.262 -2.16,-15.371 v -0.02 c 0,-2.109 0.12,-4.218 0.36,-6.308 l 0.01,-0.113 0.09,-0.789 c 0.19,-1.45 0.43,-2.911 0.74,-4.399 4.38,-1.101 30.49,-7.191 59.68,-3.129 18.29,2.547 32.19,7.957 40.62,12.039 7.01,3.399 11.51,6.469 13.25,7.739 -1.73,6.429 -6.51,16.511 -10.89,22.8 -12.53,17.899 -26.05,22.5 -32.99,23.641 -2.64,0.43 -4.76,0.68 -7.77,0.68 -2.79,0 -6.26,-0.219 -10.89,-0.711 -4.65,-0.489 -9.82,-1.711 -15.82,-3.731 -8.43,-2.808 -16.05,-7.238 -22.05,-12.789 l -0.21,-0.199 c -0.88,-0.813 -2.74,-2.539 -4.87,-5.25" /></g></g></svg>